%TF.GenerationSoftware,KiCad,Pcbnew,(6.0.9)*%
%TF.CreationDate,2022-12-08T08:54:28-05:00*%
%TF.ProjectId,6502_4,36353032-5f34-42e6-9b69-6361645f7063,rev?*%
%TF.SameCoordinates,Original*%
%TF.FileFunction,Copper,L2,Bot*%
%TF.FilePolarity,Positive*%
%FSLAX46Y46*%
G04 Gerber Fmt 4.6, Leading zero omitted, Abs format (unit mm)*
G04 Created by KiCad (PCBNEW (6.0.9)) date 2022-12-08 08:54:28*
%MOMM*%
%LPD*%
G01*
G04 APERTURE LIST*
%TA.AperFunction,ComponentPad*%
%ADD10R,1.700000X1.700000*%
%TD*%
%TA.AperFunction,ComponentPad*%
%ADD11O,1.700000X1.700000*%
%TD*%
%TA.AperFunction,ComponentPad*%
%ADD12C,1.600000*%
%TD*%
%TA.AperFunction,ComponentPad*%
%ADD13R,1.600000X1.600000*%
%TD*%
%TA.AperFunction,ComponentPad*%
%ADD14O,1.600000X1.600000*%
%TD*%
%TA.AperFunction,ComponentPad*%
%ADD15C,1.500000*%
%TD*%
%TA.AperFunction,ViaPad*%
%ADD16C,0.800000*%
%TD*%
%TA.AperFunction,Conductor*%
%ADD17C,0.300000*%
%TD*%
%TA.AperFunction,Conductor*%
%ADD18C,0.700000*%
%TD*%
%TA.AperFunction,Conductor*%
%ADD19C,0.200000*%
%TD*%
G04 APERTURE END LIST*
D10*
%TO.P,D DATA LINES,0*%
%TO.N,N/C*%
X116840000Y-30480000D03*
D11*
%TO.P,D DATA LINES,1*%
X119380000Y-30480000D03*
%TO.P,D DATA LINES,2*%
X121920000Y-30480000D03*
%TO.P,D DATA LINES,3*%
X124460000Y-30480000D03*
%TO.P,D DATA LINES,4*%
X127000000Y-30480000D03*
%TO.P,D DATA LINES,5*%
X129540000Y-30480000D03*
%TO.P,D DATA LINES,6*%
X132080000Y-30480000D03*
%TO.P,D DATA LINES,7*%
X134620000Y-30480000D03*
%TD*%
D12*
%TO.P,0.01uf,1*%
%TO.N,N/C*%
X166330000Y-81280000D03*
%TO.P,0.01uf,2*%
X161330000Y-81280000D03*
%TD*%
D13*
%TO.P,6551,1*%
%TO.N,N/C*%
X152395000Y-27950000D03*
D14*
%TO.P,6551,2*%
X152395000Y-30490000D03*
%TO.P,6551,3*%
X152395000Y-33030000D03*
%TO.P,6551,4*%
X152395000Y-35570000D03*
%TO.P,6551,5*%
X152395000Y-38110000D03*
%TO.P,6551,6*%
X152395000Y-40650000D03*
%TO.P,6551,7*%
X152395000Y-43190000D03*
%TO.P,6551,8*%
X152395000Y-45730000D03*
%TO.P,6551,9*%
X152395000Y-48270000D03*
%TO.P,6551,10*%
X152395000Y-50810000D03*
%TO.P,6551,11*%
X152395000Y-53350000D03*
%TO.P,6551,12*%
X152395000Y-55890000D03*
%TO.P,6551,13*%
X152395000Y-58430000D03*
%TO.P,6551,14*%
X152395000Y-60970000D03*
%TO.P,6551,15*%
X167635000Y-60970000D03*
%TO.P,6551,16*%
X167635000Y-58430000D03*
%TO.P,6551,17*%
X167635000Y-55890000D03*
%TO.P,6551,18*%
X167635000Y-53350000D03*
%TO.P,6551,19*%
X167635000Y-50810000D03*
%TO.P,6551,20*%
X167635000Y-48270000D03*
%TO.P,6551,21*%
X167635000Y-45730000D03*
%TO.P,6551,22*%
X167635000Y-43190000D03*
%TO.P,6551,23*%
X167635000Y-40650000D03*
%TO.P,6551,24*%
X167635000Y-38110000D03*
%TO.P,6551,25*%
X167635000Y-35570000D03*
%TO.P,6551,26*%
X167635000Y-33030000D03*
%TO.P,6551,27*%
X167635000Y-30490000D03*
%TO.P,6551,28*%
X167635000Y-27950000D03*
%TD*%
D10*
%TO.P,JP1,1*%
%TO.N,N/C*%
X146050000Y-52070000D03*
D11*
%TO.P,JP1,2*%
X146050000Y-54610000D03*
%TO.P,JP1,3*%
X146050000Y-57150000D03*
%TD*%
D13*
%TO.P,74HC132N,1*%
%TO.N,N/C*%
X120660000Y-144775000D03*
D14*
%TO.P,74HC132N,2*%
X120660000Y-147315000D03*
%TO.P,74HC132N,3*%
X120660000Y-149855000D03*
%TO.P,74HC132N,4*%
X120660000Y-152395000D03*
%TO.P,74HC132N,5*%
X120660000Y-154935000D03*
%TO.P,74HC132N,6*%
X120660000Y-157475000D03*
%TO.P,74HC132N,7*%
X120660000Y-160015000D03*
%TO.P,74HC132N,8*%
X128280000Y-160015000D03*
%TO.P,74HC132N,9*%
X128280000Y-157475000D03*
%TO.P,74HC132N,10*%
X128280000Y-154935000D03*
%TO.P,74HC132N,11*%
X128280000Y-152395000D03*
%TO.P,74HC132N,12*%
X128280000Y-149855000D03*
%TO.P,74HC132N,13*%
X128280000Y-147315000D03*
%TO.P,74HC132N,14*%
X128280000Y-144775000D03*
%TD*%
D10*
%TO.P,POWER HEADER,1*%
%TO.N,N/C*%
X22860000Y-55880000D03*
D11*
%TO.P,POWER HEADER,2*%
X25400000Y-55880000D03*
%TD*%
D12*
%TO.P,0.01uf,1*%
%TO.N,N/C*%
X92710000Y-54570000D03*
%TO.P,0.01uf,2*%
X92710000Y-49570000D03*
%TD*%
D10*
%TO.P,JW1,1*%
%TO.N,N/C*%
X21590000Y-88900000D03*
D11*
%TO.P,JW1,2*%
X21590000Y-91440000D03*
%TO.P,JW1,3*%
X21590000Y-93980000D03*
%TO.P,JW1,4*%
X21590000Y-96520000D03*
%TD*%
D12*
%TO.P,0.01uf,1*%
%TO.N,N/C*%
X179030000Y-67310000D03*
%TO.P,0.01uf,2*%
X174030000Y-67310000D03*
%TD*%
D13*
%TO.P,AM27c256,1*%
%TO.N,N/C*%
X68575000Y-86370000D03*
D14*
%TO.P,AM27c256,2*%
X68575000Y-88910000D03*
%TO.P,AM27c256,3*%
X68575000Y-91450000D03*
%TO.P,AM27c256,4*%
X68575000Y-93990000D03*
%TO.P,AM27c256,5*%
X68575000Y-96530000D03*
%TO.P,AM27c256,6*%
X68575000Y-99070000D03*
%TO.P,AM27c256,7*%
X68575000Y-101610000D03*
%TO.P,AM27c256,8*%
X68575000Y-104150000D03*
%TO.P,AM27c256,9*%
X68575000Y-106690000D03*
%TO.P,AM27c256,10*%
X68575000Y-109230000D03*
%TO.P,AM27c256,11*%
X68575000Y-111770000D03*
%TO.P,AM27c256,12*%
X68575000Y-114310000D03*
%TO.P,AM27c256,13*%
X68575000Y-116850000D03*
%TO.P,AM27c256,14*%
X68575000Y-119390000D03*
%TO.P,AM27c256,15*%
X83815000Y-119390000D03*
%TO.P,AM27c256,16*%
X83815000Y-116850000D03*
%TO.P,AM27c256,17*%
X83815000Y-114310000D03*
%TO.P,AM27c256,18*%
X83815000Y-111770000D03*
%TO.P,AM27c256,19*%
X83815000Y-109230000D03*
%TO.P,AM27c256,20*%
X83815000Y-106690000D03*
%TO.P,AM27c256,21*%
X83815000Y-104150000D03*
%TO.P,AM27c256,22*%
X83815000Y-101610000D03*
%TO.P,AM27c256,23*%
X83815000Y-99070000D03*
%TO.P,AM27c256,24*%
X83815000Y-96530000D03*
%TO.P,AM27c256,25*%
X83815000Y-93990000D03*
%TO.P,AM27c256,26*%
X83815000Y-91450000D03*
%TO.P,AM27c256,27*%
X83815000Y-88910000D03*
%TO.P,AM27c256,28*%
X83815000Y-86370000D03*
%TD*%
D12*
%TO.P,27pf,1*%
%TO.N,N/C*%
X133350000Y-54610000D03*
%TO.P,27pf,2*%
X133350000Y-49610000D03*
%TD*%
%TO.P,R1,1*%
%TO.N,N/C*%
X25400000Y-83820000D03*
D14*
%TO.P,R1,2*%
X25400000Y-71120000D03*
%TD*%
D12*
%TO.P,0.01uf,1*%
%TO.N,N/C*%
X135850000Y-162560000D03*
%TO.P,0.01uf,2*%
X130850000Y-162560000D03*
%TD*%
D13*
%TO.P,KM62256CLP,1*%
%TO.N,N/C*%
X68580000Y-27940000D03*
D14*
%TO.P,KM62256CLP,2*%
X68580000Y-30480000D03*
%TO.P,KM62256CLP,3*%
X68580000Y-33020000D03*
%TO.P,KM62256CLP,4*%
X68580000Y-35560000D03*
%TO.P,KM62256CLP,5*%
X68580000Y-38100000D03*
%TO.P,KM62256CLP,6*%
X68580000Y-40640000D03*
%TO.P,KM62256CLP,7*%
X68580000Y-43180000D03*
%TO.P,KM62256CLP,8*%
X68580000Y-45720000D03*
%TO.P,KM62256CLP,9*%
X68580000Y-48260000D03*
%TO.P,KM62256CLP,10*%
X68580000Y-50800000D03*
%TO.P,KM62256CLP,11*%
X68580000Y-53340000D03*
%TO.P,KM62256CLP,12*%
X68580000Y-55880000D03*
%TO.P,KM62256CLP,13*%
X68580000Y-58420000D03*
%TO.P,KM62256CLP,14*%
X68580000Y-60960000D03*
%TO.P,KM62256CLP,15*%
X83820000Y-60960000D03*
%TO.P,KM62256CLP,16*%
X83820000Y-58420000D03*
%TO.P,KM62256CLP,17*%
X83820000Y-55880000D03*
%TO.P,KM62256CLP,18*%
X83820000Y-53340000D03*
%TO.P,KM62256CLP,19*%
X83820000Y-50800000D03*
%TO.P,KM62256CLP,20*%
X83820000Y-48260000D03*
%TO.P,KM62256CLP,21*%
X83820000Y-45720000D03*
%TO.P,KM62256CLP,22*%
X83820000Y-43180000D03*
%TO.P,KM62256CLP,23*%
X83820000Y-40640000D03*
%TO.P,KM62256CLP,24*%
X83820000Y-38100000D03*
%TO.P,KM62256CLP,25*%
X83820000Y-35560000D03*
%TO.P,KM62256CLP,26*%
X83820000Y-33020000D03*
%TO.P,KM62256CLP,27*%
X83820000Y-30480000D03*
%TO.P,KM62256CLP,28*%
X83820000Y-27940000D03*
%TD*%
D13*
%TO.P,W65C02,1*%
%TO.N,N/C*%
X33020000Y-81275000D03*
D14*
%TO.P,W65C02,2*%
X33020000Y-83815000D03*
%TO.P,W65C02,3*%
X33020000Y-86355000D03*
%TO.P,W65C02,4*%
X33020000Y-88895000D03*
%TO.P,W65C02,5*%
X33020000Y-91435000D03*
%TO.P,W65C02,6*%
X33020000Y-93975000D03*
%TO.P,W65C02,7*%
X33020000Y-96515000D03*
%TO.P,W65C02,8*%
X33020000Y-99055000D03*
%TO.P,W65C02,9*%
X33020000Y-101595000D03*
%TO.P,W65C02,10*%
X33020000Y-104135000D03*
%TO.P,W65C02,11*%
X33020000Y-106675000D03*
%TO.P,W65C02,12*%
X33020000Y-109215000D03*
%TO.P,W65C02,13*%
X33020000Y-111755000D03*
%TO.P,W65C02,14*%
X33020000Y-114295000D03*
%TO.P,W65C02,15*%
X33020000Y-116835000D03*
%TO.P,W65C02,16*%
X33020000Y-119375000D03*
%TO.P,W65C02,17*%
X33020000Y-121915000D03*
%TO.P,W65C02,18*%
X33020000Y-124455000D03*
%TO.P,W65C02,19*%
X33020000Y-126995000D03*
%TO.P,W65C02,20*%
X33020000Y-129535000D03*
%TO.P,W65C02,21*%
X48260000Y-129535000D03*
%TO.P,W65C02,22*%
X48260000Y-126995000D03*
%TO.P,W65C02,23*%
X48260000Y-124455000D03*
%TO.P,W65C02,24*%
X48260000Y-121915000D03*
%TO.P,W65C02,25*%
X48260000Y-119375000D03*
%TO.P,W65C02,26*%
X48260000Y-116835000D03*
%TO.P,W65C02,27*%
X48260000Y-114295000D03*
%TO.P,W65C02,28*%
X48260000Y-111755000D03*
%TO.P,W65C02,29*%
X48260000Y-109215000D03*
%TO.P,W65C02,30*%
X48260000Y-106675000D03*
%TO.P,W65C02,31*%
X48260000Y-104135000D03*
%TO.P,W65C02,32*%
X48260000Y-101595000D03*
%TO.P,W65C02,33*%
X48260000Y-99055000D03*
%TO.P,W65C02,34*%
X48260000Y-96515000D03*
%TO.P,W65C02,35*%
X48260000Y-93975000D03*
%TO.P,W65C02,36*%
X48260000Y-91435000D03*
%TO.P,W65C02,37*%
X48260000Y-88895000D03*
%TO.P,W65C02,38*%
X48260000Y-86355000D03*
%TO.P,W65C02,39*%
X48260000Y-83815000D03*
%TO.P,W65C02,40*%
X48260000Y-81275000D03*
%TD*%
D10*
%TO.P,40 PIN,1*%
%TO.N,N/C*%
X177800000Y-83820000D03*
D11*
%TO.P,40 PIN,2*%
X175260000Y-83820000D03*
%TO.P,40 PIN,3*%
X177800000Y-86360000D03*
%TO.P,40 PIN,4*%
X175260000Y-86360000D03*
%TO.P,40 PIN,5*%
X177800000Y-88900000D03*
%TO.P,40 PIN,6*%
X175260000Y-88900000D03*
%TO.P,40 PIN,7*%
X177800000Y-91440000D03*
%TO.P,40 PIN,8*%
X175260000Y-91440000D03*
%TO.P,40 PIN,9*%
X177800000Y-93980000D03*
%TO.P,40 PIN,10*%
X175260000Y-93980000D03*
%TO.P,40 PIN,11*%
X177800000Y-96520000D03*
%TO.P,40 PIN,12*%
X175260000Y-96520000D03*
%TO.P,40 PIN,13*%
X177800000Y-99060000D03*
%TO.P,40 PIN,14*%
X175260000Y-99060000D03*
%TO.P,40 PIN,15*%
X177800000Y-101600000D03*
%TO.P,40 PIN,16*%
X175260000Y-101600000D03*
%TO.P,40 PIN,17*%
X177800000Y-104140000D03*
%TO.P,40 PIN,18*%
X175260000Y-104140000D03*
%TO.P,40 PIN,19*%
X177800000Y-106680000D03*
%TO.P,40 PIN,20*%
X175260000Y-106680000D03*
%TO.P,40 PIN,21*%
X177800000Y-109220000D03*
%TO.P,40 PIN,22*%
X175260000Y-109220000D03*
%TO.P,40 PIN,23*%
X177800000Y-111760000D03*
%TO.P,40 PIN,24*%
X175260000Y-111760000D03*
%TO.P,40 PIN,25*%
X177800000Y-114300000D03*
%TO.P,40 PIN,26*%
X175260000Y-114300000D03*
%TO.P,40 PIN,27*%
X177800000Y-116840000D03*
%TO.P,40 PIN,28*%
X175260000Y-116840000D03*
%TO.P,40 PIN,29*%
X177800000Y-119380000D03*
%TO.P,40 PIN,30*%
X175260000Y-119380000D03*
%TO.P,40 PIN,31*%
X177800000Y-121920000D03*
%TO.P,40 PIN,32*%
X175260000Y-121920000D03*
%TO.P,40 PIN,33*%
X177800000Y-124460000D03*
%TO.P,40 PIN,34*%
X175260000Y-124460000D03*
%TO.P,40 PIN,35*%
X177800000Y-127000000D03*
%TO.P,40 PIN,36*%
X175260000Y-127000000D03*
%TO.P,40 PIN,37*%
X177800000Y-129540000D03*
%TO.P,40 PIN,38*%
X175260000Y-129540000D03*
%TO.P,40 PIN,39*%
X177800000Y-132080000D03*
%TO.P,40 PIN,40*%
X175260000Y-132080000D03*
%TD*%
D13*
%TO.P,W65C02,1*%
%TO.N,N/C*%
X157485000Y-129535000D03*
D14*
%TO.P,W65C02,2*%
X157485000Y-126995000D03*
%TO.P,W65C02,3*%
X157485000Y-124455000D03*
%TO.P,W65C02,4*%
X157485000Y-121915000D03*
%TO.P,W65C02,5*%
X157485000Y-119375000D03*
%TO.P,W65C02,6*%
X157485000Y-116835000D03*
%TO.P,W65C02,7*%
X157485000Y-114295000D03*
%TO.P,W65C02,8*%
X157485000Y-111755000D03*
%TO.P,W65C02,9*%
X157485000Y-109215000D03*
%TO.P,W65C02,10*%
X157485000Y-106675000D03*
%TO.P,W65C02,11*%
X157485000Y-104135000D03*
%TO.P,W65C02,12*%
X157485000Y-101595000D03*
%TO.P,W65C02,13*%
X157485000Y-99055000D03*
%TO.P,W65C02,14*%
X157485000Y-96515000D03*
%TO.P,W65C02,15*%
X157485000Y-93975000D03*
%TO.P,W65C02,16*%
X157485000Y-91435000D03*
%TO.P,W65C02,17*%
X157485000Y-88895000D03*
%TO.P,W65C02,18*%
X157485000Y-86355000D03*
%TO.P,W65C02,19*%
X157485000Y-83815000D03*
%TO.P,W65C02,20*%
X157485000Y-81275000D03*
%TO.P,W65C02,21*%
X142245000Y-81275000D03*
%TO.P,W65C02,22*%
X142245000Y-83815000D03*
%TO.P,W65C02,23*%
X142245000Y-86355000D03*
%TO.P,W65C02,24*%
X142245000Y-88895000D03*
%TO.P,W65C02,25*%
X142245000Y-91435000D03*
%TO.P,W65C02,26*%
X142245000Y-93975000D03*
%TO.P,W65C02,27*%
X142245000Y-96515000D03*
%TO.P,W65C02,28*%
X142245000Y-99055000D03*
%TO.P,W65C02,29*%
X142245000Y-101595000D03*
%TO.P,W65C02,30*%
X142245000Y-104135000D03*
%TO.P,W65C02,31*%
X142245000Y-106675000D03*
%TO.P,W65C02,32*%
X142245000Y-109215000D03*
%TO.P,W65C02,33*%
X142245000Y-111755000D03*
%TO.P,W65C02,34*%
X142245000Y-114295000D03*
%TO.P,W65C02,35*%
X142245000Y-116835000D03*
%TO.P,W65C02,36*%
X142245000Y-119375000D03*
%TO.P,W65C02,37*%
X142245000Y-121915000D03*
%TO.P,W65C02,38*%
X142245000Y-124455000D03*
%TO.P,W65C02,39*%
X142245000Y-126995000D03*
%TO.P,W65C02,40*%
X142245000Y-129535000D03*
%TD*%
D12*
%TO.P,0.01uf,1*%
%TO.N,N/C*%
X81280000Y-166330000D03*
%TO.P,0.01uf,2*%
X81280000Y-161330000D03*
%TD*%
D11*
%TO.P,A DATA UNSORTED LINES,0*%
%TO.N,N/C*%
X90170000Y-151130000D03*
%TO.P,A DATA UNSORTED LINES,1*%
X90170000Y-148590000D03*
%TO.P,A DATA UNSORTED LINES,2*%
X90170000Y-146050000D03*
%TO.P,A DATA UNSORTED LINES,3*%
X90170000Y-143510000D03*
%TO.P,A DATA UNSORTED LINES,4*%
X90170000Y-140970000D03*
%TO.P,A DATA UNSORTED LINES,5*%
X90170000Y-138430000D03*
%TO.P,A DATA UNSORTED LINES,6*%
X90170000Y-135890000D03*
%TO.P,A DATA UNSORTED LINES,7*%
X90170000Y-133350000D03*
%TO.P,A DATA UNSORTED LINES,8*%
X90170000Y-130810000D03*
%TO.P,A DATA UNSORTED LINES,9*%
X90170000Y-128270000D03*
%TO.P,A DATA UNSORTED LINES,10*%
X90170000Y-125730000D03*
D10*
%TO.P,A DATA UNSORTED LINES,11*%
X90170000Y-123190000D03*
D11*
%TO.P,A DATA UNSORTED LINES,12*%
X90170000Y-153670000D03*
%TO.P,A DATA UNSORTED LINES,13*%
X90170000Y-156210000D03*
%TO.P,A DATA UNSORTED LINES,14*%
X90170000Y-158750000D03*
%TD*%
D15*
%TO.P,1.8432M,1*%
%TO.N,N/C*%
X140970000Y-45630000D03*
%TO.P,1.8432M,2*%
X140970000Y-40730000D03*
%TD*%
D12*
%TO.P,0.01uf,1*%
%TO.N,N/C*%
X48220000Y-147320000D03*
%TO.P,0.01uf,2*%
X43220000Y-147320000D03*
%TD*%
D10*
%TO.P,A DATA LINES,0*%
%TO.N,N/C*%
X85095000Y-15240000D03*
D11*
%TO.P,A DATA LINES,1*%
X87635000Y-15240000D03*
%TO.P,A DATA LINES,2*%
X90175000Y-15240000D03*
%TO.P,A DATA LINES,3*%
X92715000Y-15240000D03*
%TO.P,A DATA LINES,4*%
X95255000Y-15240000D03*
%TO.P,A DATA LINES,5*%
X97795000Y-15240000D03*
%TO.P,A DATA LINES,6*%
X100335000Y-15240000D03*
%TO.P,A DATA LINES,7*%
X102875000Y-15240000D03*
%TO.P,A DATA LINES,8*%
X105415000Y-15240000D03*
%TO.P,A DATA LINES,9*%
X107955000Y-15240000D03*
%TO.P,A DATA LINES,10*%
X110495000Y-15240000D03*
%TO.P,A DATA LINES,11*%
X113035000Y-15240000D03*
%TO.P,A DATA LINES,12*%
X115575000Y-15240000D03*
%TO.P,A DATA LINES,13*%
X118115000Y-15240000D03*
%TO.P,A DATA LINES,14*%
X120655000Y-15240000D03*
%TD*%
D16*
%TO.N,*%
X93980000Y-119380000D03*
X120650000Y-125730000D03*
X52070000Y-80010000D03*
X20320000Y-66040000D03*
X77460000Y-96530000D03*
X125730000Y-125730000D03*
X106680000Y-130810000D03*
X137160000Y-165100000D03*
X43180000Y-71120000D03*
X97790000Y-146050000D03*
X101600000Y-138430000D03*
X119380000Y-106680000D03*
X54610000Y-82550000D03*
X120650000Y-104140000D03*
X138430000Y-69850000D03*
X127000000Y-58420000D03*
X104140000Y-125730000D03*
X118112500Y-17782500D03*
X30480000Y-83820000D03*
X25400000Y-91440000D03*
X100330000Y-121920000D03*
X99060000Y-143510000D03*
X102870000Y-121920000D03*
X80010000Y-134620000D03*
X116840000Y-111760000D03*
X102870000Y-17780000D03*
X115570000Y-106680000D03*
X76200000Y-104140000D03*
X133350000Y-143510000D03*
X69850000Y-123190000D03*
X41910000Y-77470000D03*
X62230000Y-142240000D03*
X97790000Y-121920000D03*
X106680000Y-35560000D03*
X113032500Y-17782500D03*
X80010000Y-132080000D03*
X105410000Y-17780000D03*
X97792500Y-17777500D03*
X119380000Y-125730000D03*
X53340000Y-81280000D03*
X97790000Y-34290000D03*
X182880000Y-68580000D03*
X93980000Y-73660000D03*
X157480000Y-137160000D03*
X96520000Y-33020000D03*
X64770000Y-144780000D03*
X96520000Y-119380000D03*
X135890000Y-57150000D03*
X55880000Y-83820000D03*
X93980000Y-33020000D03*
X133350000Y-63500000D03*
X109220000Y-45720000D03*
X107950000Y-128270000D03*
X118110000Y-109220000D03*
X110490000Y-123190000D03*
X93980000Y-46990000D03*
X127000000Y-138430000D03*
X104140000Y-123190000D03*
X101600000Y-121920000D03*
X77470000Y-102870000D03*
X48260000Y-74930000D03*
X124460000Y-96520000D03*
X99060000Y-116840000D03*
X80010000Y-133350000D03*
X157480000Y-166370000D03*
X92710000Y-167640000D03*
X162560000Y-66040000D03*
X25400000Y-99060000D03*
X107955000Y-38100000D03*
X58420000Y-148590000D03*
X72390000Y-92710000D03*
X135890000Y-86360000D03*
X124460000Y-125730000D03*
X59695000Y-126995000D03*
X102870000Y-135890000D03*
X66040000Y-146050000D03*
X116840000Y-68580000D03*
X45720000Y-72390000D03*
X80010000Y-105410000D03*
X71120000Y-139700000D03*
X95252500Y-17777500D03*
X105410000Y-133350000D03*
X43180000Y-88900000D03*
X167640000Y-68580000D03*
X147320000Y-22860000D03*
X95250000Y-151130000D03*
X57150000Y-121920000D03*
X57150000Y-149860000D03*
X119380000Y-66040000D03*
X45720000Y-73660000D03*
X121920000Y-101600000D03*
X93980000Y-71120000D03*
X77470000Y-134620000D03*
X60960000Y-140970000D03*
X106680000Y-130810000D03*
X124460000Y-60960000D03*
X110490000Y-40640000D03*
X96520000Y-148590000D03*
X95250000Y-121920000D03*
X125730000Y-93980000D03*
X118110000Y-67310000D03*
X50800000Y-78740000D03*
X99060000Y-121920000D03*
X123190000Y-62230000D03*
X120650000Y-166370000D03*
X123190000Y-99060000D03*
X114300000Y-137160000D03*
X78740000Y-102870000D03*
X157480000Y-163830000D03*
X118110000Y-125730000D03*
X109220000Y-125730000D03*
X95250000Y-120650000D03*
X93980000Y-34290000D03*
X95250000Y-48260000D03*
X76200000Y-133350000D03*
X74930000Y-132080000D03*
X104140000Y-130810000D03*
X167640000Y-67310000D03*
X73660000Y-137160000D03*
X30480000Y-60960000D03*
X181610000Y-67310000D03*
X182880000Y-64770000D03*
X43180000Y-73660000D03*
X121920000Y-63500000D03*
X137160000Y-165100000D03*
X19050000Y-68580000D03*
X113030000Y-29210000D03*
X100332500Y-17777500D03*
X100330000Y-140970000D03*
X142240000Y-72390000D03*
X137160000Y-52070000D03*
X97790000Y-118110000D03*
X92710000Y-165100000D03*
X163830000Y-35560000D03*
X116840000Y-125730000D03*
X76200000Y-72390000D03*
X125730000Y-59690000D03*
X115570000Y-101600000D03*
X76200000Y-76200000D03*
X113030000Y-88900000D03*
X49530000Y-77470000D03*
X184150000Y-140970000D03*
X115570000Y-143510000D03*
X57150000Y-85090000D03*
X78730000Y-93990000D03*
X72390000Y-88900000D03*
X80010000Y-102870000D03*
X121920000Y-125730000D03*
X123190000Y-125730000D03*
X63500000Y-143510000D03*
X96520000Y-121920000D03*
X59695000Y-147315000D03*
X139700000Y-71120000D03*
X72390000Y-138430000D03*
X120650000Y-64770000D03*
X58425000Y-124455000D03*
X58420000Y-88900000D03*
X104140000Y-128270000D03*
%TD*%
D17*
%TO.N,*%
X80010000Y-129540000D02*
X81280000Y-130810000D01*
X162570000Y-33030000D02*
X162560000Y-33020000D01*
X120655000Y-104135000D02*
X120650000Y-104140000D01*
X142245000Y-93975000D02*
X125735000Y-93975000D01*
X115570000Y-149860000D02*
X115575000Y-149855000D01*
D18*
X161325000Y-81275000D02*
X161330000Y-81280000D01*
D17*
X146050000Y-154940000D02*
X146050000Y-83820000D01*
X95250000Y-120650000D02*
X138430000Y-120650000D01*
X83820000Y-50800000D02*
X92710000Y-59690000D01*
X104140000Y-130810000D02*
X106680000Y-130810000D01*
D18*
X80020000Y-86370000D02*
X83815000Y-86370000D01*
D17*
X110490000Y-123190000D02*
X104140000Y-123190000D01*
D18*
X184150000Y-140970000D02*
X187960000Y-140970000D01*
D17*
X109220000Y-125730000D02*
X104140000Y-125730000D01*
X100332500Y-17777500D02*
X100330000Y-17780000D01*
X64770000Y-33020000D02*
X68580000Y-33020000D01*
X68575000Y-91450000D02*
X71105000Y-93980000D01*
X97792500Y-17777500D02*
X97790000Y-17780000D01*
X66040000Y-24130000D02*
X66040000Y-30480000D01*
X64770000Y-22860000D02*
X64770000Y-33020000D01*
D18*
X189230000Y-125730000D02*
X182880000Y-119380000D01*
D17*
X64770000Y-55880000D02*
X64770000Y-67310000D01*
X93980000Y-71120000D02*
X139700000Y-71120000D01*
X177800000Y-139700000D02*
X186690000Y-139700000D01*
X68575000Y-96530000D02*
X71105000Y-99060000D01*
X78730000Y-93990000D02*
X78740000Y-94000000D01*
X130810000Y-46990000D02*
X93980000Y-46990000D01*
D18*
X80020000Y-102860000D02*
X80010000Y-102870000D01*
D17*
X167635000Y-33030000D02*
X162570000Y-33030000D01*
X125735000Y-149860000D02*
X125730000Y-149860000D01*
X45720000Y-96520000D02*
X45720000Y-73660000D01*
X63500000Y-53340000D02*
X63500000Y-68580000D01*
X149850000Y-58430000D02*
X148590000Y-59690000D01*
X177800000Y-139700000D02*
X177800000Y-165100000D01*
D18*
X69850000Y-153670000D02*
X69850000Y-160020000D01*
D17*
X64770000Y-106680000D02*
X64770000Y-144780000D01*
D18*
X22860000Y-60960000D02*
X22860000Y-55880000D01*
D17*
X107955000Y-38100000D02*
X83820000Y-38100000D01*
D18*
X76200000Y-86360000D02*
X76200000Y-76200000D01*
D17*
X140980000Y-120650000D02*
X142245000Y-121915000D01*
X114305000Y-157475000D02*
X120660000Y-157475000D01*
D18*
X17780000Y-60960000D02*
X17780000Y-99060000D01*
D17*
X71105000Y-93980000D02*
X73660000Y-93980000D01*
X148590000Y-59690000D02*
X130810000Y-59690000D01*
X115570000Y-143510000D02*
X115570000Y-149860000D01*
D18*
X25400000Y-83820000D02*
X25400000Y-99060000D01*
D17*
X66040000Y-58420000D02*
X66040000Y-66040000D01*
D18*
X187960000Y-127000000D02*
X181610000Y-120650000D01*
D17*
X48260000Y-81275000D02*
X48260000Y-74930000D01*
X142245000Y-104135000D02*
X120655000Y-104135000D01*
X54605000Y-114295000D02*
X54610000Y-114300000D01*
X180340000Y-24130000D02*
X146050000Y-24130000D01*
X113032500Y-17782500D02*
X113032500Y-24127500D01*
X119385000Y-106675000D02*
X119380000Y-106680000D01*
D18*
X43220000Y-99060000D02*
X43220000Y-147320000D01*
X16510000Y-148590000D02*
X48260000Y-148590000D01*
D17*
X115560000Y-101610000D02*
X115570000Y-101600000D01*
X35560000Y-88900000D02*
X35560000Y-77470000D01*
D18*
X128230000Y-49570000D02*
X128270000Y-49530000D01*
D17*
X92710000Y-59690000D02*
X125730000Y-59690000D01*
X78740000Y-94000000D02*
X78740000Y-102870000D01*
X66040000Y-109220000D02*
X66040000Y-146050000D01*
X142245000Y-111755000D02*
X116845000Y-111755000D01*
X95250000Y-17780000D02*
X59690000Y-17780000D01*
X118115000Y-109215000D02*
X118110000Y-109220000D01*
X57145000Y-121915000D02*
X57150000Y-121920000D01*
X116845000Y-111755000D02*
X116840000Y-111760000D01*
X96520000Y-33020000D02*
X93980000Y-33020000D01*
D18*
X157485000Y-129535000D02*
X157485000Y-163825000D01*
D17*
X58420000Y-148590000D02*
X58420000Y-124460000D01*
D18*
X186690000Y-166370000D02*
X186690000Y-142240000D01*
D17*
X140970000Y-120650000D02*
X140980000Y-120650000D01*
X102870000Y-135890000D02*
X102870000Y-121920000D01*
D18*
X157485000Y-163825000D02*
X157480000Y-163830000D01*
D17*
X152395000Y-60970000D02*
X129550000Y-60970000D01*
X146050000Y-35560000D02*
X146060000Y-35570000D01*
X48260000Y-114295000D02*
X54605000Y-114295000D01*
X130810000Y-59690000D02*
X130810000Y-46990000D01*
X115570000Y-106680000D02*
X115560000Y-106690000D01*
X102870000Y-17780000D02*
X102870000Y-21590000D01*
X142245000Y-88895000D02*
X113035000Y-88895000D01*
X105410000Y-22860000D02*
X64770000Y-22860000D01*
X93980000Y-58420000D02*
X127000000Y-58420000D01*
D18*
X17780000Y-99060000D02*
X16510000Y-100330000D01*
D17*
X133350000Y-152400000D02*
X133350000Y-143510000D01*
X68575000Y-104150000D02*
X63510000Y-104150000D01*
X57150000Y-121920000D02*
X57150000Y-149860000D01*
X129540000Y-60960000D02*
X129540000Y-48260000D01*
X97790000Y-146050000D02*
X97790000Y-121920000D01*
X125730000Y-149860000D02*
X125725000Y-149855000D01*
D18*
X48260000Y-129535000D02*
X48260000Y-153670000D01*
D17*
X146060000Y-35570000D02*
X152395000Y-35570000D01*
X146050000Y-154940000D02*
X146045000Y-154935000D01*
X114300000Y-157480000D02*
X114305000Y-157475000D01*
X177800000Y-165100000D02*
X138430000Y-165100000D01*
D18*
X128270000Y-49530000D02*
X128270000Y-63500000D01*
D17*
X128280000Y-147315000D02*
X125735000Y-149860000D01*
X66040000Y-66040000D02*
X119380000Y-66040000D01*
X71105000Y-99060000D02*
X71120000Y-99060000D01*
X142245000Y-86355000D02*
X135895000Y-86355000D01*
X118112500Y-17782500D02*
X118112500Y-25397500D01*
X48260000Y-96515000D02*
X45725000Y-96515000D01*
X142245000Y-99055000D02*
X123195000Y-99055000D01*
D18*
X30480000Y-60960000D02*
X22860000Y-60960000D01*
X16510000Y-100330000D02*
X16510000Y-148590000D01*
D17*
X83820000Y-33020000D02*
X90170000Y-33020000D01*
X59690000Y-69850000D02*
X138430000Y-69850000D01*
X68580000Y-25400000D02*
X68580000Y-27940000D01*
X59690000Y-43180000D02*
X68580000Y-43180000D01*
X71120000Y-99060000D02*
X71120000Y-139700000D01*
X72390000Y-88900000D02*
X72390000Y-92710000D01*
D18*
X30480000Y-77470000D02*
X31750000Y-76200000D01*
D17*
X130810000Y-149855000D02*
X128280000Y-149855000D01*
X83820000Y-60960000D02*
X87630000Y-64770000D01*
X35555000Y-88895000D02*
X35560000Y-88900000D01*
X99060000Y-143510000D02*
X99060000Y-121920000D01*
X90170000Y-33020000D02*
X93980000Y-29210000D01*
D18*
X114300000Y-33020000D02*
X135890000Y-33020000D01*
D17*
X180340000Y-121920000D02*
X180340000Y-24130000D01*
D18*
X69850000Y-166370000D02*
X81280000Y-166370000D01*
D17*
X63500000Y-35560000D02*
X68580000Y-35560000D01*
D19*
X76200000Y-104140000D02*
X76210000Y-104150000D01*
D17*
X68580000Y-55880000D02*
X64770000Y-55880000D01*
X69850000Y-151130000D02*
X71120000Y-152400000D01*
X125735000Y-93975000D02*
X125730000Y-93980000D01*
X163830000Y-69850000D02*
X163830000Y-35560000D01*
D18*
X31750000Y-72390000D02*
X45720000Y-72390000D01*
X80020000Y-86370000D02*
X80020000Y-102860000D01*
D17*
X60960000Y-19050000D02*
X60960000Y-40640000D01*
X171450000Y-27940000D02*
X168910000Y-27940000D01*
X115575000Y-149855000D02*
X120660000Y-149855000D01*
X96520000Y-148590000D02*
X96520000Y-121920000D01*
X121925000Y-101595000D02*
X121920000Y-101600000D01*
X114300000Y-142240000D02*
X114300000Y-157480000D01*
D18*
X181610000Y-22860000D02*
X147320000Y-22860000D01*
D17*
X68575000Y-93990000D02*
X71105000Y-96520000D01*
X118110000Y-25400000D02*
X68580000Y-25400000D01*
X83815000Y-106690000D02*
X115560000Y-106690000D01*
X55875000Y-116835000D02*
X55880000Y-116840000D01*
X118110000Y-138430000D02*
X127000000Y-138430000D01*
X53335000Y-111755000D02*
X53340000Y-111760000D01*
D18*
X33020000Y-99055000D02*
X43215000Y-99055000D01*
D17*
X68575000Y-106690000D02*
X64780000Y-106690000D01*
X97790000Y-17780000D02*
X97790000Y-19050000D01*
X124460000Y-12700000D02*
X54610000Y-12700000D01*
X48260000Y-106675000D02*
X50795000Y-106675000D01*
X43180000Y-88900000D02*
X43180000Y-73660000D01*
X60960000Y-99060000D02*
X60960000Y-140970000D01*
X125725000Y-149855000D02*
X120660000Y-149855000D01*
X83820000Y-48260000D02*
X93980000Y-58420000D01*
X45725000Y-96515000D02*
X45720000Y-96520000D01*
X139700000Y-119380000D02*
X140970000Y-120650000D01*
X113035000Y-88895000D02*
X113030000Y-88900000D01*
X64770000Y-67310000D02*
X118110000Y-67310000D01*
X48260000Y-111755000D02*
X53335000Y-111755000D01*
D18*
X161285000Y-129535000D02*
X161290000Y-129540000D01*
D17*
X101600000Y-138430000D02*
X101600000Y-121920000D01*
D18*
X74930000Y-86360000D02*
X74920000Y-86370000D01*
D17*
X124465000Y-96515000D02*
X124460000Y-96520000D01*
X74930000Y-132080000D02*
X80010000Y-132080000D01*
X49530000Y-17780000D02*
X49530000Y-77470000D01*
D18*
X68580000Y-153670000D02*
X69850000Y-153670000D01*
D17*
X72390000Y-96520000D02*
X72390000Y-138430000D01*
D18*
X22860000Y-60960000D02*
X17780000Y-60960000D01*
X167640000Y-68580000D02*
X167635000Y-68575000D01*
D17*
X83820000Y-58420000D02*
X88900000Y-63500000D01*
X130810000Y-137160000D02*
X130810000Y-149855000D01*
D18*
X157480000Y-166370000D02*
X186690000Y-166370000D01*
D17*
X142245000Y-96515000D02*
X124465000Y-96515000D01*
X96520000Y-119380000D02*
X139700000Y-119380000D01*
X83815000Y-101610000D02*
X115560000Y-101610000D01*
X114300000Y-137160000D02*
X130810000Y-137160000D01*
X48260000Y-109215000D02*
X52065000Y-109215000D01*
D18*
X186690000Y-142240000D02*
X189230000Y-142240000D01*
X167635000Y-60970000D02*
X167635000Y-68575000D01*
X74940000Y-86370000D02*
X76210000Y-86370000D01*
D17*
X54610000Y-114300000D02*
X54610000Y-82550000D01*
X120660000Y-154935000D02*
X124455000Y-154935000D01*
X105410000Y-17780000D02*
X105410000Y-22860000D01*
X68580000Y-53340000D02*
X63500000Y-53340000D01*
X93980000Y-73660000D02*
X171450000Y-73660000D01*
X142245000Y-124455000D02*
X140980000Y-123190000D01*
D18*
X83820000Y-27940000D02*
X114300000Y-27940000D01*
D17*
X80010000Y-133350000D02*
X76200000Y-133350000D01*
X137160000Y-165100000D02*
X138430000Y-165100000D01*
X102870000Y-21590000D02*
X63500000Y-21590000D01*
D18*
X187960000Y-140970000D02*
X187960000Y-127000000D01*
D17*
X95252500Y-17777500D02*
X95250000Y-17780000D01*
X95250000Y-151130000D02*
X95250000Y-121920000D01*
X124455000Y-154935000D02*
X124460000Y-154940000D01*
D18*
X76210000Y-86370000D02*
X80020000Y-86370000D01*
D17*
X146050000Y-83820000D02*
X146045000Y-83815000D01*
X59690000Y-17780000D02*
X59690000Y-43180000D01*
X57150000Y-121920000D02*
X57150000Y-85090000D01*
X68575000Y-99070000D02*
X60970000Y-99070000D01*
X43180000Y-71120000D02*
X43180000Y-66040000D01*
D18*
X43215000Y-99055000D02*
X43220000Y-99060000D01*
X76200000Y-72390000D02*
X142240000Y-72390000D01*
X114300000Y-27940000D02*
X114300000Y-33020000D01*
D17*
X146045000Y-83815000D02*
X142245000Y-83815000D01*
X186690000Y-128270000D02*
X180340000Y-121920000D01*
X152395000Y-58430000D02*
X149850000Y-58430000D01*
X68575000Y-109230000D02*
X66050000Y-109230000D01*
X118112500Y-25397500D02*
X118110000Y-25400000D01*
X48260000Y-121915000D02*
X57145000Y-121915000D01*
X90170000Y-62230000D02*
X123190000Y-62230000D01*
X138430000Y-120650000D02*
X140970000Y-123190000D01*
X140980000Y-123190000D02*
X140970000Y-123190000D01*
X91440000Y-60960000D02*
X124460000Y-60960000D01*
X186690000Y-139700000D02*
X186690000Y-128270000D01*
X138430000Y-69850000D02*
X163830000Y-69850000D01*
D18*
X74920000Y-86370000D02*
X68575000Y-86370000D01*
D17*
X100330000Y-140970000D02*
X100330000Y-121920000D01*
X35560000Y-77470000D02*
X41910000Y-77470000D01*
X171450000Y-73660000D02*
X171450000Y-27950000D01*
X123195000Y-99055000D02*
X123190000Y-99060000D01*
D18*
X76210000Y-86370000D02*
X76200000Y-86360000D01*
X81280000Y-166370000D02*
X157480000Y-166370000D01*
D17*
X137160000Y-52070000D02*
X137160000Y-25400000D01*
X60960000Y-40640000D02*
X68580000Y-40640000D01*
D18*
X30480000Y-83820000D02*
X30480000Y-77470000D01*
D17*
X140980000Y-118110000D02*
X97790000Y-118110000D01*
X58420000Y-124460000D02*
X58425000Y-124455000D01*
X71105000Y-96520000D02*
X72390000Y-96520000D01*
X124460000Y-163830000D02*
X146050000Y-163830000D01*
X50795000Y-106675000D02*
X50800000Y-106680000D01*
X63500000Y-68580000D02*
X116840000Y-68580000D01*
X177800000Y-132080000D02*
X177800000Y-139700000D01*
X62230000Y-38100000D02*
X68580000Y-38100000D01*
X128280000Y-152395000D02*
X133345000Y-152395000D01*
X83820000Y-35560000D02*
X106680000Y-35560000D01*
D18*
X31750000Y-76200000D02*
X31750000Y-72390000D01*
D17*
X80010000Y-134620000D02*
X77470000Y-134620000D01*
X129550000Y-60970000D02*
X129540000Y-60960000D01*
X113030000Y-24130000D02*
X66040000Y-24130000D01*
X107950000Y-128270000D02*
X104140000Y-128270000D01*
X62240000Y-101610000D02*
X62230000Y-101600000D01*
X64780000Y-106690000D02*
X64770000Y-106680000D01*
D18*
X135890000Y-33020000D02*
X135890000Y-57150000D01*
D17*
X43180000Y-66040000D02*
X20320000Y-66040000D01*
X66040000Y-30480000D02*
X68580000Y-30480000D01*
D18*
X68575000Y-119390000D02*
X68575000Y-153665000D01*
D17*
X62230000Y-101600000D02*
X62230000Y-142240000D01*
X93980000Y-119380000D02*
X93980000Y-165100000D01*
X142245000Y-106675000D02*
X119385000Y-106675000D01*
X133345000Y-152395000D02*
X133350000Y-152400000D01*
D18*
X189230000Y-142240000D02*
X189230000Y-125730000D01*
D17*
X93980000Y-165100000D02*
X137160000Y-165100000D01*
X162560000Y-33020000D02*
X162560000Y-66040000D01*
X58420000Y-88900000D02*
X58420000Y-71120000D01*
X100330000Y-20320000D02*
X62230000Y-20320000D01*
X77460000Y-96530000D02*
X77470000Y-96540000D01*
X63500000Y-104140000D02*
X63500000Y-143510000D01*
X146050000Y-24130000D02*
X146050000Y-35560000D01*
D18*
X161290000Y-129540000D02*
X170180000Y-129540000D01*
X68575000Y-153665000D02*
X68580000Y-153670000D01*
D17*
X69850000Y-123190000D02*
X69850000Y-151130000D01*
D18*
X170180000Y-129540000D02*
X170180000Y-81280000D01*
D17*
X142245000Y-119375000D02*
X140980000Y-118110000D01*
X60970000Y-99070000D02*
X60960000Y-99060000D01*
X71120000Y-165100000D02*
X92710000Y-165100000D01*
X62230000Y-20320000D02*
X62230000Y-38100000D01*
X66050000Y-109230000D02*
X66040000Y-109220000D01*
D18*
X92710000Y-49570000D02*
X128230000Y-49570000D01*
D17*
X120660000Y-149855000D02*
X120660000Y-152395000D01*
X97790000Y-19050000D02*
X60960000Y-19050000D01*
X55880000Y-116840000D02*
X55880000Y-83820000D01*
X52070000Y-109220000D02*
X52070000Y-80010000D01*
X81280000Y-130810000D02*
X81280000Y-161330000D01*
X33020000Y-88895000D02*
X35555000Y-88895000D01*
X93980000Y-34290000D02*
X97790000Y-34290000D01*
D18*
X128270000Y-63500000D02*
X133350000Y-63500000D01*
D17*
X87630000Y-64770000D02*
X120650000Y-64770000D01*
X113030000Y-29210000D02*
X93980000Y-29210000D01*
X135895000Y-86355000D02*
X135890000Y-86360000D01*
X80010000Y-105410000D02*
X80010000Y-129540000D01*
X59695000Y-126995000D02*
X59695000Y-147315000D01*
X77470000Y-96540000D02*
X77470000Y-102870000D01*
D18*
X157485000Y-129535000D02*
X161285000Y-129535000D01*
D17*
X88900000Y-63500000D02*
X121920000Y-63500000D01*
X52065000Y-109215000D02*
X52070000Y-109220000D01*
X54610000Y-12700000D02*
X49530000Y-17780000D01*
X99065000Y-116835000D02*
X142245000Y-116835000D01*
X58420000Y-71120000D02*
X59690000Y-69850000D01*
D18*
X182880000Y-119380000D02*
X182880000Y-64770000D01*
X181610000Y-120650000D02*
X181610000Y-22860000D01*
D17*
X124460000Y-154940000D02*
X124460000Y-163830000D01*
X53340000Y-111760000D02*
X53340000Y-81280000D01*
D18*
X48260000Y-153670000D02*
X68580000Y-153670000D01*
D17*
X146050000Y-163830000D02*
X146050000Y-154940000D01*
X100330000Y-17780000D02*
X100330000Y-20320000D01*
X48260000Y-116835000D02*
X55875000Y-116835000D01*
X71120000Y-152400000D02*
X71120000Y-165100000D01*
X142245000Y-101595000D02*
X121925000Y-101595000D01*
X63500000Y-21590000D02*
X63500000Y-35560000D01*
X68575000Y-101610000D02*
X62240000Y-101610000D01*
X114300000Y-142240000D02*
X118110000Y-138430000D01*
X63510000Y-104150000D02*
X63500000Y-104140000D01*
X83820000Y-55880000D02*
X90170000Y-62230000D01*
X168900000Y-27950000D02*
X168910000Y-27940000D01*
X137160000Y-25400000D02*
X124460000Y-12700000D01*
X73660000Y-93980000D02*
X73660000Y-137160000D01*
X110490000Y-40640000D02*
X83820000Y-40640000D01*
D18*
X69850000Y-160020000D02*
X69850000Y-166370000D01*
D17*
X83815000Y-104150000D02*
X76210000Y-104150000D01*
X83820000Y-53340000D02*
X91440000Y-60960000D01*
X113032500Y-24127500D02*
X113030000Y-24130000D01*
D18*
X74930000Y-86360000D02*
X74940000Y-86370000D01*
X157485000Y-81275000D02*
X161325000Y-81275000D01*
D17*
X109220000Y-45720000D02*
X83820000Y-45720000D01*
X99060000Y-116840000D02*
X99065000Y-116835000D01*
X167635000Y-27950000D02*
X168900000Y-27950000D01*
D18*
X170180000Y-81280000D02*
X166330000Y-81280000D01*
D17*
X142245000Y-109215000D02*
X118115000Y-109215000D01*
X129540000Y-48260000D02*
X95250000Y-48260000D01*
X68580000Y-58420000D02*
X66040000Y-58420000D01*
X50800000Y-106680000D02*
X50800000Y-78740000D01*
%TD*%
M02*
