%TF.GenerationSoftware,KiCad,Pcbnew,(6.0.9)*%
%TF.CreationDate,2022-12-08T08:54:28-05:00*%
%TF.ProjectId,6502_4,36353032-5f34-42e6-9b69-6361645f7063,rev?*%
%TF.SameCoordinates,Original*%
%TF.FileFunction,Legend,Top*%
%TF.FilePolarity,Positive*%
%FSLAX46Y46*%
G04 Gerber Fmt 4.6, Leading zero omitted, Abs format (unit mm)*
G04 Created by KiCad (PCBNEW (6.0.9)) date 2022-12-08 08:54:28*
%MOMM*%
%LPD*%
G01*
G04 APERTURE LIST*
%ADD10C,0.150000*%
%ADD11C,0.120000*%
G04 APERTURE END LIST*
D10*
%TO.C,D DATA LINES*%
X114962380Y-35337142D02*
X113962380Y-35337142D01*
X113962380Y-35099047D01*
X114010000Y-34956190D01*
X114105238Y-34860952D01*
X114200476Y-34813333D01*
X114390952Y-34765714D01*
X114533809Y-34765714D01*
X114724285Y-34813333D01*
X114819523Y-34860952D01*
X114914761Y-34956190D01*
X114962380Y-35099047D01*
X114962380Y-35337142D01*
X114962380Y-33575238D02*
X113962380Y-33575238D01*
X113962380Y-33337142D01*
X114010000Y-33194285D01*
X114105238Y-33099047D01*
X114200476Y-33051428D01*
X114390952Y-33003809D01*
X114533809Y-33003809D01*
X114724285Y-33051428D01*
X114819523Y-33099047D01*
X114914761Y-33194285D01*
X114962380Y-33337142D01*
X114962380Y-33575238D01*
X114676666Y-32622857D02*
X114676666Y-32146666D01*
X114962380Y-32718095D02*
X113962380Y-32384761D01*
X114962380Y-32051428D01*
X113962380Y-31860952D02*
X113962380Y-31289523D01*
X114962380Y-31575238D02*
X113962380Y-31575238D01*
X114676666Y-31003809D02*
X114676666Y-30527619D01*
X114962380Y-31099047D02*
X113962380Y-30765714D01*
X114962380Y-30432380D01*
X114962380Y-28860952D02*
X114962380Y-29337142D01*
X113962380Y-29337142D01*
X114962380Y-28527619D02*
X113962380Y-28527619D01*
X114962380Y-28051428D02*
X113962380Y-28051428D01*
X114962380Y-27480000D01*
X113962380Y-27480000D01*
X114438571Y-27003809D02*
X114438571Y-26670476D01*
X114962380Y-26527619D02*
X114962380Y-27003809D01*
X113962380Y-27003809D01*
X113962380Y-26527619D01*
X114914761Y-26146666D02*
X114962380Y-26003809D01*
X114962380Y-25765714D01*
X114914761Y-25670476D01*
X114867142Y-25622857D01*
X114771904Y-25575238D01*
X114676666Y-25575238D01*
X114581428Y-25622857D01*
X114533809Y-25670476D01*
X114486190Y-25765714D01*
X114438571Y-25956190D01*
X114390952Y-26051428D01*
X114343333Y-26099047D01*
X114248095Y-26146666D01*
X114152857Y-26146666D01*
X114057619Y-26099047D01*
X114010000Y-26051428D01*
X113962380Y-25956190D01*
X113962380Y-25718095D01*
X114010000Y-25575238D01*
%TO.C,0.01uf*%
X161853809Y-83232380D02*
X161949047Y-83232380D01*
X162044285Y-83280000D01*
X162091904Y-83327619D01*
X162139523Y-83422857D01*
X162187142Y-83613333D01*
X162187142Y-83851428D01*
X162139523Y-84041904D01*
X162091904Y-84137142D01*
X162044285Y-84184761D01*
X161949047Y-84232380D01*
X161853809Y-84232380D01*
X161758571Y-84184761D01*
X161710952Y-84137142D01*
X161663333Y-84041904D01*
X161615714Y-83851428D01*
X161615714Y-83613333D01*
X161663333Y-83422857D01*
X161710952Y-83327619D01*
X161758571Y-83280000D01*
X161853809Y-83232380D01*
X162615714Y-84137142D02*
X162663333Y-84184761D01*
X162615714Y-84232380D01*
X162568095Y-84184761D01*
X162615714Y-84137142D01*
X162615714Y-84232380D01*
X163282380Y-83232380D02*
X163377619Y-83232380D01*
X163472857Y-83280000D01*
X163520476Y-83327619D01*
X163568095Y-83422857D01*
X163615714Y-83613333D01*
X163615714Y-83851428D01*
X163568095Y-84041904D01*
X163520476Y-84137142D01*
X163472857Y-84184761D01*
X163377619Y-84232380D01*
X163282380Y-84232380D01*
X163187142Y-84184761D01*
X163139523Y-84137142D01*
X163091904Y-84041904D01*
X163044285Y-83851428D01*
X163044285Y-83613333D01*
X163091904Y-83422857D01*
X163139523Y-83327619D01*
X163187142Y-83280000D01*
X163282380Y-83232380D01*
X164568095Y-84232380D02*
X163996666Y-84232380D01*
X164282380Y-84232380D02*
X164282380Y-83232380D01*
X164187142Y-83375238D01*
X164091904Y-83470476D01*
X163996666Y-83518095D01*
X165425238Y-83565714D02*
X165425238Y-84232380D01*
X164996666Y-83565714D02*
X164996666Y-84089523D01*
X165044285Y-84184761D01*
X165139523Y-84232380D01*
X165282380Y-84232380D01*
X165377619Y-84184761D01*
X165425238Y-84137142D01*
X165758571Y-83565714D02*
X166139523Y-83565714D01*
X165901428Y-84232380D02*
X165901428Y-83375238D01*
X165949047Y-83280000D01*
X166044285Y-83232380D01*
X166139523Y-83232380D01*
%TO.C,6551*%
X158776904Y-25072380D02*
X158586428Y-25072380D01*
X158491190Y-25120000D01*
X158443571Y-25167619D01*
X158348333Y-25310476D01*
X158300714Y-25500952D01*
X158300714Y-25881904D01*
X158348333Y-25977142D01*
X158395952Y-26024761D01*
X158491190Y-26072380D01*
X158681666Y-26072380D01*
X158776904Y-26024761D01*
X158824523Y-25977142D01*
X158872142Y-25881904D01*
X158872142Y-25643809D01*
X158824523Y-25548571D01*
X158776904Y-25500952D01*
X158681666Y-25453333D01*
X158491190Y-25453333D01*
X158395952Y-25500952D01*
X158348333Y-25548571D01*
X158300714Y-25643809D01*
X159776904Y-25072380D02*
X159300714Y-25072380D01*
X159253095Y-25548571D01*
X159300714Y-25500952D01*
X159395952Y-25453333D01*
X159634047Y-25453333D01*
X159729285Y-25500952D01*
X159776904Y-25548571D01*
X159824523Y-25643809D01*
X159824523Y-25881904D01*
X159776904Y-25977142D01*
X159729285Y-26024761D01*
X159634047Y-26072380D01*
X159395952Y-26072380D01*
X159300714Y-26024761D01*
X159253095Y-25977142D01*
X160729285Y-25072380D02*
X160253095Y-25072380D01*
X160205476Y-25548571D01*
X160253095Y-25500952D01*
X160348333Y-25453333D01*
X160586428Y-25453333D01*
X160681666Y-25500952D01*
X160729285Y-25548571D01*
X160776904Y-25643809D01*
X160776904Y-25881904D01*
X160729285Y-25977142D01*
X160681666Y-26024761D01*
X160586428Y-26072380D01*
X160348333Y-26072380D01*
X160253095Y-26024761D01*
X160205476Y-25977142D01*
X161729285Y-26072380D02*
X161157857Y-26072380D01*
X161443571Y-26072380D02*
X161443571Y-25072380D01*
X161348333Y-25215238D01*
X161253095Y-25310476D01*
X161157857Y-25358095D01*
%TO.C,JP1*%
X145216666Y-49192380D02*
X145216666Y-49906666D01*
X145169047Y-50049523D01*
X145073809Y-50144761D01*
X144930952Y-50192380D01*
X144835714Y-50192380D01*
X145692857Y-50192380D02*
X145692857Y-49192380D01*
X146073809Y-49192380D01*
X146169047Y-49240000D01*
X146216666Y-49287619D01*
X146264285Y-49382857D01*
X146264285Y-49525714D01*
X146216666Y-49620952D01*
X146169047Y-49668571D01*
X146073809Y-49716190D01*
X145692857Y-49716190D01*
X147216666Y-50192380D02*
X146645238Y-50192380D01*
X146930952Y-50192380D02*
X146930952Y-49192380D01*
X146835714Y-49335238D01*
X146740476Y-49430476D01*
X146645238Y-49478095D01*
%TO.C,74HC132N*%
X120684285Y-141897380D02*
X121350952Y-141897380D01*
X120922380Y-142897380D01*
X122160476Y-142230714D02*
X122160476Y-142897380D01*
X121922380Y-141849761D02*
X121684285Y-142564047D01*
X122303333Y-142564047D01*
X122684285Y-142897380D02*
X122684285Y-141897380D01*
X122684285Y-142373571D02*
X123255714Y-142373571D01*
X123255714Y-142897380D02*
X123255714Y-141897380D01*
X124303333Y-142802142D02*
X124255714Y-142849761D01*
X124112857Y-142897380D01*
X124017619Y-142897380D01*
X123874761Y-142849761D01*
X123779523Y-142754523D01*
X123731904Y-142659285D01*
X123684285Y-142468809D01*
X123684285Y-142325952D01*
X123731904Y-142135476D01*
X123779523Y-142040238D01*
X123874761Y-141945000D01*
X124017619Y-141897380D01*
X124112857Y-141897380D01*
X124255714Y-141945000D01*
X124303333Y-141992619D01*
X125255714Y-142897380D02*
X124684285Y-142897380D01*
X124970000Y-142897380D02*
X124970000Y-141897380D01*
X124874761Y-142040238D01*
X124779523Y-142135476D01*
X124684285Y-142183095D01*
X125589047Y-141897380D02*
X126208095Y-141897380D01*
X125874761Y-142278333D01*
X126017619Y-142278333D01*
X126112857Y-142325952D01*
X126160476Y-142373571D01*
X126208095Y-142468809D01*
X126208095Y-142706904D01*
X126160476Y-142802142D01*
X126112857Y-142849761D01*
X126017619Y-142897380D01*
X125731904Y-142897380D01*
X125636666Y-142849761D01*
X125589047Y-142802142D01*
X126589047Y-141992619D02*
X126636666Y-141945000D01*
X126731904Y-141897380D01*
X126970000Y-141897380D01*
X127065238Y-141945000D01*
X127112857Y-141992619D01*
X127160476Y-142087857D01*
X127160476Y-142183095D01*
X127112857Y-142325952D01*
X126541428Y-142897380D01*
X127160476Y-142897380D01*
X127589047Y-142897380D02*
X127589047Y-141897380D01*
X128160476Y-142897380D01*
X128160476Y-141897380D01*
%TO.C,POWER HEADER*%
X20982380Y-61427619D02*
X19982380Y-61427619D01*
X19982380Y-61046666D01*
X20030000Y-60951428D01*
X20077619Y-60903809D01*
X20172857Y-60856190D01*
X20315714Y-60856190D01*
X20410952Y-60903809D01*
X20458571Y-60951428D01*
X20506190Y-61046666D01*
X20506190Y-61427619D01*
X19982380Y-60237142D02*
X19982380Y-60046666D01*
X20030000Y-59951428D01*
X20125238Y-59856190D01*
X20315714Y-59808571D01*
X20649047Y-59808571D01*
X20839523Y-59856190D01*
X20934761Y-59951428D01*
X20982380Y-60046666D01*
X20982380Y-60237142D01*
X20934761Y-60332380D01*
X20839523Y-60427619D01*
X20649047Y-60475238D01*
X20315714Y-60475238D01*
X20125238Y-60427619D01*
X20030000Y-60332380D01*
X19982380Y-60237142D01*
X19982380Y-59475238D02*
X20982380Y-59237142D01*
X20268095Y-59046666D01*
X20982380Y-58856190D01*
X19982380Y-58618095D01*
X20458571Y-58237142D02*
X20458571Y-57903809D01*
X20982380Y-57760952D02*
X20982380Y-58237142D01*
X19982380Y-58237142D01*
X19982380Y-57760952D01*
X20982380Y-56760952D02*
X20506190Y-57094285D01*
X20982380Y-57332380D02*
X19982380Y-57332380D01*
X19982380Y-56951428D01*
X20030000Y-56856190D01*
X20077619Y-56808571D01*
X20172857Y-56760952D01*
X20315714Y-56760952D01*
X20410952Y-56808571D01*
X20458571Y-56856190D01*
X20506190Y-56951428D01*
X20506190Y-57332380D01*
X20982380Y-55570476D02*
X19982380Y-55570476D01*
X20458571Y-55570476D02*
X20458571Y-54999047D01*
X20982380Y-54999047D02*
X19982380Y-54999047D01*
X20458571Y-54522857D02*
X20458571Y-54189523D01*
X20982380Y-54046666D02*
X20982380Y-54522857D01*
X19982380Y-54522857D01*
X19982380Y-54046666D01*
X20696666Y-53665714D02*
X20696666Y-53189523D01*
X20982380Y-53760952D02*
X19982380Y-53427619D01*
X20982380Y-53094285D01*
X20982380Y-52760952D02*
X19982380Y-52760952D01*
X19982380Y-52522857D01*
X20030000Y-52380000D01*
X20125238Y-52284761D01*
X20220476Y-52237142D01*
X20410952Y-52189523D01*
X20553809Y-52189523D01*
X20744285Y-52237142D01*
X20839523Y-52284761D01*
X20934761Y-52380000D01*
X20982380Y-52522857D01*
X20982380Y-52760952D01*
X20458571Y-51760952D02*
X20458571Y-51427619D01*
X20982380Y-51284761D02*
X20982380Y-51760952D01*
X19982380Y-51760952D01*
X19982380Y-51284761D01*
X20982380Y-50284761D02*
X20506190Y-50618095D01*
X20982380Y-50856190D02*
X19982380Y-50856190D01*
X19982380Y-50475238D01*
X20030000Y-50380000D01*
X20077619Y-50332380D01*
X20172857Y-50284761D01*
X20315714Y-50284761D01*
X20410952Y-50332380D01*
X20458571Y-50380000D01*
X20506190Y-50475238D01*
X20506190Y-50856190D01*
%TO.C,0.01uf*%
X89662380Y-54046190D02*
X89662380Y-53950952D01*
X89710000Y-53855714D01*
X89757619Y-53808095D01*
X89852857Y-53760476D01*
X90043333Y-53712857D01*
X90281428Y-53712857D01*
X90471904Y-53760476D01*
X90567142Y-53808095D01*
X90614761Y-53855714D01*
X90662380Y-53950952D01*
X90662380Y-54046190D01*
X90614761Y-54141428D01*
X90567142Y-54189047D01*
X90471904Y-54236666D01*
X90281428Y-54284285D01*
X90043333Y-54284285D01*
X89852857Y-54236666D01*
X89757619Y-54189047D01*
X89710000Y-54141428D01*
X89662380Y-54046190D01*
X90567142Y-53284285D02*
X90614761Y-53236666D01*
X90662380Y-53284285D01*
X90614761Y-53331904D01*
X90567142Y-53284285D01*
X90662380Y-53284285D01*
X89662380Y-52617619D02*
X89662380Y-52522380D01*
X89710000Y-52427142D01*
X89757619Y-52379523D01*
X89852857Y-52331904D01*
X90043333Y-52284285D01*
X90281428Y-52284285D01*
X90471904Y-52331904D01*
X90567142Y-52379523D01*
X90614761Y-52427142D01*
X90662380Y-52522380D01*
X90662380Y-52617619D01*
X90614761Y-52712857D01*
X90567142Y-52760476D01*
X90471904Y-52808095D01*
X90281428Y-52855714D01*
X90043333Y-52855714D01*
X89852857Y-52808095D01*
X89757619Y-52760476D01*
X89710000Y-52712857D01*
X89662380Y-52617619D01*
X90662380Y-51331904D02*
X90662380Y-51903333D01*
X90662380Y-51617619D02*
X89662380Y-51617619D01*
X89805238Y-51712857D01*
X89900476Y-51808095D01*
X89948095Y-51903333D01*
X89995714Y-50474761D02*
X90662380Y-50474761D01*
X89995714Y-50903333D02*
X90519523Y-50903333D01*
X90614761Y-50855714D01*
X90662380Y-50760476D01*
X90662380Y-50617619D01*
X90614761Y-50522380D01*
X90567142Y-50474761D01*
X89995714Y-50141428D02*
X89995714Y-49760476D01*
X90662380Y-49998571D02*
X89805238Y-49998571D01*
X89710000Y-49950952D01*
X89662380Y-49855714D01*
X89662380Y-49760476D01*
%TO.C,JW1*%
X20685238Y-86022380D02*
X20685238Y-86736666D01*
X20637619Y-86879523D01*
X20542380Y-86974761D01*
X20399523Y-87022380D01*
X20304285Y-87022380D01*
X21066190Y-86022380D02*
X21304285Y-87022380D01*
X21494761Y-86308095D01*
X21685238Y-87022380D01*
X21923333Y-86022380D01*
X22828095Y-87022380D02*
X22256666Y-87022380D01*
X22542380Y-87022380D02*
X22542380Y-86022380D01*
X22447142Y-86165238D01*
X22351904Y-86260476D01*
X22256666Y-86308095D01*
%TO.C,0.01uf*%
X174553809Y-69262380D02*
X174649047Y-69262380D01*
X174744285Y-69310000D01*
X174791904Y-69357619D01*
X174839523Y-69452857D01*
X174887142Y-69643333D01*
X174887142Y-69881428D01*
X174839523Y-70071904D01*
X174791904Y-70167142D01*
X174744285Y-70214761D01*
X174649047Y-70262380D01*
X174553809Y-70262380D01*
X174458571Y-70214761D01*
X174410952Y-70167142D01*
X174363333Y-70071904D01*
X174315714Y-69881428D01*
X174315714Y-69643333D01*
X174363333Y-69452857D01*
X174410952Y-69357619D01*
X174458571Y-69310000D01*
X174553809Y-69262380D01*
X175315714Y-70167142D02*
X175363333Y-70214761D01*
X175315714Y-70262380D01*
X175268095Y-70214761D01*
X175315714Y-70167142D01*
X175315714Y-70262380D01*
X175982380Y-69262380D02*
X176077619Y-69262380D01*
X176172857Y-69310000D01*
X176220476Y-69357619D01*
X176268095Y-69452857D01*
X176315714Y-69643333D01*
X176315714Y-69881428D01*
X176268095Y-70071904D01*
X176220476Y-70167142D01*
X176172857Y-70214761D01*
X176077619Y-70262380D01*
X175982380Y-70262380D01*
X175887142Y-70214761D01*
X175839523Y-70167142D01*
X175791904Y-70071904D01*
X175744285Y-69881428D01*
X175744285Y-69643333D01*
X175791904Y-69452857D01*
X175839523Y-69357619D01*
X175887142Y-69310000D01*
X175982380Y-69262380D01*
X177268095Y-70262380D02*
X176696666Y-70262380D01*
X176982380Y-70262380D02*
X176982380Y-69262380D01*
X176887142Y-69405238D01*
X176791904Y-69500476D01*
X176696666Y-69548095D01*
X178125238Y-69595714D02*
X178125238Y-70262380D01*
X177696666Y-69595714D02*
X177696666Y-70119523D01*
X177744285Y-70214761D01*
X177839523Y-70262380D01*
X177982380Y-70262380D01*
X178077619Y-70214761D01*
X178125238Y-70167142D01*
X178458571Y-69595714D02*
X178839523Y-69595714D01*
X178601428Y-70262380D02*
X178601428Y-69405238D01*
X178649047Y-69310000D01*
X178744285Y-69262380D01*
X178839523Y-69262380D01*
%TO.C,AM27c256*%
X72575952Y-84206666D02*
X73052142Y-84206666D01*
X72480714Y-84492380D02*
X72814047Y-83492380D01*
X73147380Y-84492380D01*
X73480714Y-84492380D02*
X73480714Y-83492380D01*
X73814047Y-84206666D01*
X74147380Y-83492380D01*
X74147380Y-84492380D01*
X74575952Y-83587619D02*
X74623571Y-83540000D01*
X74718809Y-83492380D01*
X74956904Y-83492380D01*
X75052142Y-83540000D01*
X75099761Y-83587619D01*
X75147380Y-83682857D01*
X75147380Y-83778095D01*
X75099761Y-83920952D01*
X74528333Y-84492380D01*
X75147380Y-84492380D01*
X75480714Y-83492380D02*
X76147380Y-83492380D01*
X75718809Y-84492380D01*
X76956904Y-84444761D02*
X76861666Y-84492380D01*
X76671190Y-84492380D01*
X76575952Y-84444761D01*
X76528333Y-84397142D01*
X76480714Y-84301904D01*
X76480714Y-84016190D01*
X76528333Y-83920952D01*
X76575952Y-83873333D01*
X76671190Y-83825714D01*
X76861666Y-83825714D01*
X76956904Y-83873333D01*
X77337857Y-83587619D02*
X77385476Y-83540000D01*
X77480714Y-83492380D01*
X77718809Y-83492380D01*
X77814047Y-83540000D01*
X77861666Y-83587619D01*
X77909285Y-83682857D01*
X77909285Y-83778095D01*
X77861666Y-83920952D01*
X77290238Y-84492380D01*
X77909285Y-84492380D01*
X78814047Y-83492380D02*
X78337857Y-83492380D01*
X78290238Y-83968571D01*
X78337857Y-83920952D01*
X78433095Y-83873333D01*
X78671190Y-83873333D01*
X78766428Y-83920952D01*
X78814047Y-83968571D01*
X78861666Y-84063809D01*
X78861666Y-84301904D01*
X78814047Y-84397142D01*
X78766428Y-84444761D01*
X78671190Y-84492380D01*
X78433095Y-84492380D01*
X78337857Y-84444761D01*
X78290238Y-84397142D01*
X79718809Y-83492380D02*
X79528333Y-83492380D01*
X79433095Y-83540000D01*
X79385476Y-83587619D01*
X79290238Y-83730476D01*
X79242619Y-83920952D01*
X79242619Y-84301904D01*
X79290238Y-84397142D01*
X79337857Y-84444761D01*
X79433095Y-84492380D01*
X79623571Y-84492380D01*
X79718809Y-84444761D01*
X79766428Y-84397142D01*
X79814047Y-84301904D01*
X79814047Y-84063809D01*
X79766428Y-83968571D01*
X79718809Y-83920952D01*
X79623571Y-83873333D01*
X79433095Y-83873333D01*
X79337857Y-83920952D01*
X79290238Y-83968571D01*
X79242619Y-84063809D01*
%TO.C,27pf*%
X130397619Y-53610000D02*
X130350000Y-53562380D01*
X130302380Y-53467142D01*
X130302380Y-53229047D01*
X130350000Y-53133809D01*
X130397619Y-53086190D01*
X130492857Y-53038571D01*
X130588095Y-53038571D01*
X130730952Y-53086190D01*
X131302380Y-53657619D01*
X131302380Y-53038571D01*
X130302380Y-52705238D02*
X130302380Y-52038571D01*
X131302380Y-52467142D01*
X130635714Y-51657619D02*
X131635714Y-51657619D01*
X130683333Y-51657619D02*
X130635714Y-51562380D01*
X130635714Y-51371904D01*
X130683333Y-51276666D01*
X130730952Y-51229047D01*
X130826190Y-51181428D01*
X131111904Y-51181428D01*
X131207142Y-51229047D01*
X131254761Y-51276666D01*
X131302380Y-51371904D01*
X131302380Y-51562380D01*
X131254761Y-51657619D01*
X130635714Y-50895714D02*
X130635714Y-50514761D01*
X131302380Y-50752857D02*
X130445238Y-50752857D01*
X130350000Y-50705238D01*
X130302380Y-50610000D01*
X130302380Y-50514761D01*
%TO.C,R1*%
X23132380Y-77636666D02*
X22656190Y-77970000D01*
X23132380Y-78208095D02*
X22132380Y-78208095D01*
X22132380Y-77827142D01*
X22180000Y-77731904D01*
X22227619Y-77684285D01*
X22322857Y-77636666D01*
X22465714Y-77636666D01*
X22560952Y-77684285D01*
X22608571Y-77731904D01*
X22656190Y-77827142D01*
X22656190Y-78208095D01*
X23132380Y-76684285D02*
X23132380Y-77255714D01*
X23132380Y-76970000D02*
X22132380Y-76970000D01*
X22275238Y-77065238D01*
X22370476Y-77160476D01*
X22418095Y-77255714D01*
%TO.C,0.01uf*%
X131373809Y-164512380D02*
X131469047Y-164512380D01*
X131564285Y-164560000D01*
X131611904Y-164607619D01*
X131659523Y-164702857D01*
X131707142Y-164893333D01*
X131707142Y-165131428D01*
X131659523Y-165321904D01*
X131611904Y-165417142D01*
X131564285Y-165464761D01*
X131469047Y-165512380D01*
X131373809Y-165512380D01*
X131278571Y-165464761D01*
X131230952Y-165417142D01*
X131183333Y-165321904D01*
X131135714Y-165131428D01*
X131135714Y-164893333D01*
X131183333Y-164702857D01*
X131230952Y-164607619D01*
X131278571Y-164560000D01*
X131373809Y-164512380D01*
X132135714Y-165417142D02*
X132183333Y-165464761D01*
X132135714Y-165512380D01*
X132088095Y-165464761D01*
X132135714Y-165417142D01*
X132135714Y-165512380D01*
X132802380Y-164512380D02*
X132897619Y-164512380D01*
X132992857Y-164560000D01*
X133040476Y-164607619D01*
X133088095Y-164702857D01*
X133135714Y-164893333D01*
X133135714Y-165131428D01*
X133088095Y-165321904D01*
X133040476Y-165417142D01*
X132992857Y-165464761D01*
X132897619Y-165512380D01*
X132802380Y-165512380D01*
X132707142Y-165464761D01*
X132659523Y-165417142D01*
X132611904Y-165321904D01*
X132564285Y-165131428D01*
X132564285Y-164893333D01*
X132611904Y-164702857D01*
X132659523Y-164607619D01*
X132707142Y-164560000D01*
X132802380Y-164512380D01*
X134088095Y-165512380D02*
X133516666Y-165512380D01*
X133802380Y-165512380D02*
X133802380Y-164512380D01*
X133707142Y-164655238D01*
X133611904Y-164750476D01*
X133516666Y-164798095D01*
X134945238Y-164845714D02*
X134945238Y-165512380D01*
X134516666Y-164845714D02*
X134516666Y-165369523D01*
X134564285Y-165464761D01*
X134659523Y-165512380D01*
X134802380Y-165512380D01*
X134897619Y-165464761D01*
X134945238Y-165417142D01*
X135278571Y-164845714D02*
X135659523Y-164845714D01*
X135421428Y-165512380D02*
X135421428Y-164655238D01*
X135469047Y-164560000D01*
X135564285Y-164512380D01*
X135659523Y-164512380D01*
%TO.C,KM62256CLP*%
X71580952Y-26062380D02*
X71580952Y-25062380D01*
X72152380Y-26062380D02*
X71723809Y-25490952D01*
X72152380Y-25062380D02*
X71580952Y-25633809D01*
X72580952Y-26062380D02*
X72580952Y-25062380D01*
X72914285Y-25776666D01*
X73247619Y-25062380D01*
X73247619Y-26062380D01*
X74152380Y-25062380D02*
X73961904Y-25062380D01*
X73866666Y-25110000D01*
X73819047Y-25157619D01*
X73723809Y-25300476D01*
X73676190Y-25490952D01*
X73676190Y-25871904D01*
X73723809Y-25967142D01*
X73771428Y-26014761D01*
X73866666Y-26062380D01*
X74057142Y-26062380D01*
X74152380Y-26014761D01*
X74200000Y-25967142D01*
X74247619Y-25871904D01*
X74247619Y-25633809D01*
X74200000Y-25538571D01*
X74152380Y-25490952D01*
X74057142Y-25443333D01*
X73866666Y-25443333D01*
X73771428Y-25490952D01*
X73723809Y-25538571D01*
X73676190Y-25633809D01*
X74628571Y-25157619D02*
X74676190Y-25110000D01*
X74771428Y-25062380D01*
X75009523Y-25062380D01*
X75104761Y-25110000D01*
X75152380Y-25157619D01*
X75200000Y-25252857D01*
X75200000Y-25348095D01*
X75152380Y-25490952D01*
X74580952Y-26062380D01*
X75200000Y-26062380D01*
X75580952Y-25157619D02*
X75628571Y-25110000D01*
X75723809Y-25062380D01*
X75961904Y-25062380D01*
X76057142Y-25110000D01*
X76104761Y-25157619D01*
X76152380Y-25252857D01*
X76152380Y-25348095D01*
X76104761Y-25490952D01*
X75533333Y-26062380D01*
X76152380Y-26062380D01*
X77057142Y-25062380D02*
X76580952Y-25062380D01*
X76533333Y-25538571D01*
X76580952Y-25490952D01*
X76676190Y-25443333D01*
X76914285Y-25443333D01*
X77009523Y-25490952D01*
X77057142Y-25538571D01*
X77104761Y-25633809D01*
X77104761Y-25871904D01*
X77057142Y-25967142D01*
X77009523Y-26014761D01*
X76914285Y-26062380D01*
X76676190Y-26062380D01*
X76580952Y-26014761D01*
X76533333Y-25967142D01*
X77961904Y-25062380D02*
X77771428Y-25062380D01*
X77676190Y-25110000D01*
X77628571Y-25157619D01*
X77533333Y-25300476D01*
X77485714Y-25490952D01*
X77485714Y-25871904D01*
X77533333Y-25967142D01*
X77580952Y-26014761D01*
X77676190Y-26062380D01*
X77866666Y-26062380D01*
X77961904Y-26014761D01*
X78009523Y-25967142D01*
X78057142Y-25871904D01*
X78057142Y-25633809D01*
X78009523Y-25538571D01*
X77961904Y-25490952D01*
X77866666Y-25443333D01*
X77676190Y-25443333D01*
X77580952Y-25490952D01*
X77533333Y-25538571D01*
X77485714Y-25633809D01*
X79057142Y-25967142D02*
X79009523Y-26014761D01*
X78866666Y-26062380D01*
X78771428Y-26062380D01*
X78628571Y-26014761D01*
X78533333Y-25919523D01*
X78485714Y-25824285D01*
X78438095Y-25633809D01*
X78438095Y-25490952D01*
X78485714Y-25300476D01*
X78533333Y-25205238D01*
X78628571Y-25110000D01*
X78771428Y-25062380D01*
X78866666Y-25062380D01*
X79009523Y-25110000D01*
X79057142Y-25157619D01*
X79961904Y-26062380D02*
X79485714Y-26062380D01*
X79485714Y-25062380D01*
X80295238Y-26062380D02*
X80295238Y-25062380D01*
X80676190Y-25062380D01*
X80771428Y-25110000D01*
X80819047Y-25157619D01*
X80866666Y-25252857D01*
X80866666Y-25395714D01*
X80819047Y-25490952D01*
X80771428Y-25538571D01*
X80676190Y-25586190D01*
X80295238Y-25586190D01*
%TO.C,W65C02*%
X37806666Y-78397380D02*
X38044761Y-79397380D01*
X38235238Y-78683095D01*
X38425714Y-79397380D01*
X38663809Y-78397380D01*
X39473333Y-78397380D02*
X39282857Y-78397380D01*
X39187619Y-78445000D01*
X39140000Y-78492619D01*
X39044761Y-78635476D01*
X38997142Y-78825952D01*
X38997142Y-79206904D01*
X39044761Y-79302142D01*
X39092380Y-79349761D01*
X39187619Y-79397380D01*
X39378095Y-79397380D01*
X39473333Y-79349761D01*
X39520952Y-79302142D01*
X39568571Y-79206904D01*
X39568571Y-78968809D01*
X39520952Y-78873571D01*
X39473333Y-78825952D01*
X39378095Y-78778333D01*
X39187619Y-78778333D01*
X39092380Y-78825952D01*
X39044761Y-78873571D01*
X38997142Y-78968809D01*
X40473333Y-78397380D02*
X39997142Y-78397380D01*
X39949523Y-78873571D01*
X39997142Y-78825952D01*
X40092380Y-78778333D01*
X40330476Y-78778333D01*
X40425714Y-78825952D01*
X40473333Y-78873571D01*
X40520952Y-78968809D01*
X40520952Y-79206904D01*
X40473333Y-79302142D01*
X40425714Y-79349761D01*
X40330476Y-79397380D01*
X40092380Y-79397380D01*
X39997142Y-79349761D01*
X39949523Y-79302142D01*
X41520952Y-79302142D02*
X41473333Y-79349761D01*
X41330476Y-79397380D01*
X41235238Y-79397380D01*
X41092380Y-79349761D01*
X40997142Y-79254523D01*
X40949523Y-79159285D01*
X40901904Y-78968809D01*
X40901904Y-78825952D01*
X40949523Y-78635476D01*
X40997142Y-78540238D01*
X41092380Y-78445000D01*
X41235238Y-78397380D01*
X41330476Y-78397380D01*
X41473333Y-78445000D01*
X41520952Y-78492619D01*
X42140000Y-78397380D02*
X42235238Y-78397380D01*
X42330476Y-78445000D01*
X42378095Y-78492619D01*
X42425714Y-78587857D01*
X42473333Y-78778333D01*
X42473333Y-79016428D01*
X42425714Y-79206904D01*
X42378095Y-79302142D01*
X42330476Y-79349761D01*
X42235238Y-79397380D01*
X42140000Y-79397380D01*
X42044761Y-79349761D01*
X41997142Y-79302142D01*
X41949523Y-79206904D01*
X41901904Y-79016428D01*
X41901904Y-78778333D01*
X41949523Y-78587857D01*
X41997142Y-78492619D01*
X42044761Y-78445000D01*
X42140000Y-78397380D01*
X42854285Y-78492619D02*
X42901904Y-78445000D01*
X42997142Y-78397380D01*
X43235238Y-78397380D01*
X43330476Y-78445000D01*
X43378095Y-78492619D01*
X43425714Y-78587857D01*
X43425714Y-78683095D01*
X43378095Y-78825952D01*
X42806666Y-79397380D01*
X43425714Y-79397380D01*
%TO.C,40 PIN*%
X174601428Y-80835714D02*
X174601428Y-81502380D01*
X174363333Y-80454761D02*
X174125238Y-81169047D01*
X174744285Y-81169047D01*
X175315714Y-80502380D02*
X175410952Y-80502380D01*
X175506190Y-80550000D01*
X175553809Y-80597619D01*
X175601428Y-80692857D01*
X175649047Y-80883333D01*
X175649047Y-81121428D01*
X175601428Y-81311904D01*
X175553809Y-81407142D01*
X175506190Y-81454761D01*
X175410952Y-81502380D01*
X175315714Y-81502380D01*
X175220476Y-81454761D01*
X175172857Y-81407142D01*
X175125238Y-81311904D01*
X175077619Y-81121428D01*
X175077619Y-80883333D01*
X175125238Y-80692857D01*
X175172857Y-80597619D01*
X175220476Y-80550000D01*
X175315714Y-80502380D01*
X176839523Y-81502380D02*
X176839523Y-80502380D01*
X177220476Y-80502380D01*
X177315714Y-80550000D01*
X177363333Y-80597619D01*
X177410952Y-80692857D01*
X177410952Y-80835714D01*
X177363333Y-80930952D01*
X177315714Y-80978571D01*
X177220476Y-81026190D01*
X176839523Y-81026190D01*
X177839523Y-81502380D02*
X177839523Y-80502380D01*
X178315714Y-81502380D02*
X178315714Y-80502380D01*
X178887142Y-81502380D01*
X178887142Y-80502380D01*
%TO.C,W65C02*%
X147031666Y-131317380D02*
X147269761Y-132317380D01*
X147460238Y-131603095D01*
X147650714Y-132317380D01*
X147888809Y-131317380D01*
X148698333Y-131317380D02*
X148507857Y-131317380D01*
X148412619Y-131365000D01*
X148365000Y-131412619D01*
X148269761Y-131555476D01*
X148222142Y-131745952D01*
X148222142Y-132126904D01*
X148269761Y-132222142D01*
X148317380Y-132269761D01*
X148412619Y-132317380D01*
X148603095Y-132317380D01*
X148698333Y-132269761D01*
X148745952Y-132222142D01*
X148793571Y-132126904D01*
X148793571Y-131888809D01*
X148745952Y-131793571D01*
X148698333Y-131745952D01*
X148603095Y-131698333D01*
X148412619Y-131698333D01*
X148317380Y-131745952D01*
X148269761Y-131793571D01*
X148222142Y-131888809D01*
X149698333Y-131317380D02*
X149222142Y-131317380D01*
X149174523Y-131793571D01*
X149222142Y-131745952D01*
X149317380Y-131698333D01*
X149555476Y-131698333D01*
X149650714Y-131745952D01*
X149698333Y-131793571D01*
X149745952Y-131888809D01*
X149745952Y-132126904D01*
X149698333Y-132222142D01*
X149650714Y-132269761D01*
X149555476Y-132317380D01*
X149317380Y-132317380D01*
X149222142Y-132269761D01*
X149174523Y-132222142D01*
X150745952Y-132222142D02*
X150698333Y-132269761D01*
X150555476Y-132317380D01*
X150460238Y-132317380D01*
X150317380Y-132269761D01*
X150222142Y-132174523D01*
X150174523Y-132079285D01*
X150126904Y-131888809D01*
X150126904Y-131745952D01*
X150174523Y-131555476D01*
X150222142Y-131460238D01*
X150317380Y-131365000D01*
X150460238Y-131317380D01*
X150555476Y-131317380D01*
X150698333Y-131365000D01*
X150745952Y-131412619D01*
X151365000Y-131317380D02*
X151460238Y-131317380D01*
X151555476Y-131365000D01*
X151603095Y-131412619D01*
X151650714Y-131507857D01*
X151698333Y-131698333D01*
X151698333Y-131936428D01*
X151650714Y-132126904D01*
X151603095Y-132222142D01*
X151555476Y-132269761D01*
X151460238Y-132317380D01*
X151365000Y-132317380D01*
X151269761Y-132269761D01*
X151222142Y-132222142D01*
X151174523Y-132126904D01*
X151126904Y-131936428D01*
X151126904Y-131698333D01*
X151174523Y-131507857D01*
X151222142Y-131412619D01*
X151269761Y-131365000D01*
X151365000Y-131317380D01*
X152079285Y-131412619D02*
X152126904Y-131365000D01*
X152222142Y-131317380D01*
X152460238Y-131317380D01*
X152555476Y-131365000D01*
X152603095Y-131412619D01*
X152650714Y-131507857D01*
X152650714Y-131603095D01*
X152603095Y-131745952D01*
X152031666Y-132317380D01*
X152650714Y-132317380D01*
%TO.C,0.01uf*%
X78232380Y-165806190D02*
X78232380Y-165710952D01*
X78280000Y-165615714D01*
X78327619Y-165568095D01*
X78422857Y-165520476D01*
X78613333Y-165472857D01*
X78851428Y-165472857D01*
X79041904Y-165520476D01*
X79137142Y-165568095D01*
X79184761Y-165615714D01*
X79232380Y-165710952D01*
X79232380Y-165806190D01*
X79184761Y-165901428D01*
X79137142Y-165949047D01*
X79041904Y-165996666D01*
X78851428Y-166044285D01*
X78613333Y-166044285D01*
X78422857Y-165996666D01*
X78327619Y-165949047D01*
X78280000Y-165901428D01*
X78232380Y-165806190D01*
X79137142Y-165044285D02*
X79184761Y-164996666D01*
X79232380Y-165044285D01*
X79184761Y-165091904D01*
X79137142Y-165044285D01*
X79232380Y-165044285D01*
X78232380Y-164377619D02*
X78232380Y-164282380D01*
X78280000Y-164187142D01*
X78327619Y-164139523D01*
X78422857Y-164091904D01*
X78613333Y-164044285D01*
X78851428Y-164044285D01*
X79041904Y-164091904D01*
X79137142Y-164139523D01*
X79184761Y-164187142D01*
X79232380Y-164282380D01*
X79232380Y-164377619D01*
X79184761Y-164472857D01*
X79137142Y-164520476D01*
X79041904Y-164568095D01*
X78851428Y-164615714D01*
X78613333Y-164615714D01*
X78422857Y-164568095D01*
X78327619Y-164520476D01*
X78280000Y-164472857D01*
X78232380Y-164377619D01*
X79232380Y-163091904D02*
X79232380Y-163663333D01*
X79232380Y-163377619D02*
X78232380Y-163377619D01*
X78375238Y-163472857D01*
X78470476Y-163568095D01*
X78518095Y-163663333D01*
X78565714Y-162234761D02*
X79232380Y-162234761D01*
X78565714Y-162663333D02*
X79089523Y-162663333D01*
X79184761Y-162615714D01*
X79232380Y-162520476D01*
X79232380Y-162377619D01*
X79184761Y-162282380D01*
X79137142Y-162234761D01*
X78565714Y-161901428D02*
X78565714Y-161520476D01*
X79232380Y-161758571D02*
X78375238Y-161758571D01*
X78280000Y-161710952D01*
X78232380Y-161615714D01*
X78232380Y-161520476D01*
%TO.C,A DATA UNSORTED LINES*%
X81074761Y-121026666D02*
X81550952Y-121026666D01*
X80979523Y-121312380D02*
X81312857Y-120312380D01*
X81646190Y-121312380D01*
X82741428Y-121312380D02*
X82741428Y-120312380D01*
X82979523Y-120312380D01*
X83122380Y-120360000D01*
X83217619Y-120455238D01*
X83265238Y-120550476D01*
X83312857Y-120740952D01*
X83312857Y-120883809D01*
X83265238Y-121074285D01*
X83217619Y-121169523D01*
X83122380Y-121264761D01*
X82979523Y-121312380D01*
X82741428Y-121312380D01*
X83693809Y-121026666D02*
X84170000Y-121026666D01*
X83598571Y-121312380D02*
X83931904Y-120312380D01*
X84265238Y-121312380D01*
X84455714Y-120312380D02*
X85027142Y-120312380D01*
X84741428Y-121312380D02*
X84741428Y-120312380D01*
X85312857Y-121026666D02*
X85789047Y-121026666D01*
X85217619Y-121312380D02*
X85550952Y-120312380D01*
X85884285Y-121312380D01*
X86979523Y-120312380D02*
X86979523Y-121121904D01*
X87027142Y-121217142D01*
X87074761Y-121264761D01*
X87170000Y-121312380D01*
X87360476Y-121312380D01*
X87455714Y-121264761D01*
X87503333Y-121217142D01*
X87550952Y-121121904D01*
X87550952Y-120312380D01*
X88027142Y-121312380D02*
X88027142Y-120312380D01*
X88598571Y-121312380D01*
X88598571Y-120312380D01*
X89027142Y-121264761D02*
X89170000Y-121312380D01*
X89408095Y-121312380D01*
X89503333Y-121264761D01*
X89550952Y-121217142D01*
X89598571Y-121121904D01*
X89598571Y-121026666D01*
X89550952Y-120931428D01*
X89503333Y-120883809D01*
X89408095Y-120836190D01*
X89217619Y-120788571D01*
X89122380Y-120740952D01*
X89074761Y-120693333D01*
X89027142Y-120598095D01*
X89027142Y-120502857D01*
X89074761Y-120407619D01*
X89122380Y-120360000D01*
X89217619Y-120312380D01*
X89455714Y-120312380D01*
X89598571Y-120360000D01*
X90217619Y-120312380D02*
X90408095Y-120312380D01*
X90503333Y-120360000D01*
X90598571Y-120455238D01*
X90646190Y-120645714D01*
X90646190Y-120979047D01*
X90598571Y-121169523D01*
X90503333Y-121264761D01*
X90408095Y-121312380D01*
X90217619Y-121312380D01*
X90122380Y-121264761D01*
X90027142Y-121169523D01*
X89979523Y-120979047D01*
X89979523Y-120645714D01*
X90027142Y-120455238D01*
X90122380Y-120360000D01*
X90217619Y-120312380D01*
X91646190Y-121312380D02*
X91312857Y-120836190D01*
X91074761Y-121312380D02*
X91074761Y-120312380D01*
X91455714Y-120312380D01*
X91550952Y-120360000D01*
X91598571Y-120407619D01*
X91646190Y-120502857D01*
X91646190Y-120645714D01*
X91598571Y-120740952D01*
X91550952Y-120788571D01*
X91455714Y-120836190D01*
X91074761Y-120836190D01*
X91931904Y-120312380D02*
X92503333Y-120312380D01*
X92217619Y-121312380D02*
X92217619Y-120312380D01*
X92836666Y-120788571D02*
X93170000Y-120788571D01*
X93312857Y-121312380D02*
X92836666Y-121312380D01*
X92836666Y-120312380D01*
X93312857Y-120312380D01*
X93741428Y-121312380D02*
X93741428Y-120312380D01*
X93979523Y-120312380D01*
X94122380Y-120360000D01*
X94217619Y-120455238D01*
X94265238Y-120550476D01*
X94312857Y-120740952D01*
X94312857Y-120883809D01*
X94265238Y-121074285D01*
X94217619Y-121169523D01*
X94122380Y-121264761D01*
X93979523Y-121312380D01*
X93741428Y-121312380D01*
X95979523Y-121312380D02*
X95503333Y-121312380D01*
X95503333Y-120312380D01*
X96312857Y-121312380D02*
X96312857Y-120312380D01*
X96789047Y-121312380D02*
X96789047Y-120312380D01*
X97360476Y-121312380D01*
X97360476Y-120312380D01*
X97836666Y-120788571D02*
X98170000Y-120788571D01*
X98312857Y-121312380D02*
X97836666Y-121312380D01*
X97836666Y-120312380D01*
X98312857Y-120312380D01*
X98693809Y-121264761D02*
X98836666Y-121312380D01*
X99074761Y-121312380D01*
X99170000Y-121264761D01*
X99217619Y-121217142D01*
X99265238Y-121121904D01*
X99265238Y-121026666D01*
X99217619Y-120931428D01*
X99170000Y-120883809D01*
X99074761Y-120836190D01*
X98884285Y-120788571D01*
X98789047Y-120740952D01*
X98741428Y-120693333D01*
X98693809Y-120598095D01*
X98693809Y-120502857D01*
X98741428Y-120407619D01*
X98789047Y-120360000D01*
X98884285Y-120312380D01*
X99122380Y-120312380D01*
X99265238Y-120360000D01*
%TO.C,1.8432M*%
X137897380Y-45608571D02*
X137897380Y-46180000D01*
X137897380Y-45894285D02*
X136897380Y-45894285D01*
X137040238Y-45989523D01*
X137135476Y-46084761D01*
X137183095Y-46180000D01*
X137802142Y-45180000D02*
X137849761Y-45132380D01*
X137897380Y-45180000D01*
X137849761Y-45227619D01*
X137802142Y-45180000D01*
X137897380Y-45180000D01*
X137325952Y-44560952D02*
X137278333Y-44656190D01*
X137230714Y-44703809D01*
X137135476Y-44751428D01*
X137087857Y-44751428D01*
X136992619Y-44703809D01*
X136945000Y-44656190D01*
X136897380Y-44560952D01*
X136897380Y-44370476D01*
X136945000Y-44275238D01*
X136992619Y-44227619D01*
X137087857Y-44180000D01*
X137135476Y-44180000D01*
X137230714Y-44227619D01*
X137278333Y-44275238D01*
X137325952Y-44370476D01*
X137325952Y-44560952D01*
X137373571Y-44656190D01*
X137421190Y-44703809D01*
X137516428Y-44751428D01*
X137706904Y-44751428D01*
X137802142Y-44703809D01*
X137849761Y-44656190D01*
X137897380Y-44560952D01*
X137897380Y-44370476D01*
X137849761Y-44275238D01*
X137802142Y-44227619D01*
X137706904Y-44180000D01*
X137516428Y-44180000D01*
X137421190Y-44227619D01*
X137373571Y-44275238D01*
X137325952Y-44370476D01*
X137230714Y-43322857D02*
X137897380Y-43322857D01*
X136849761Y-43560952D02*
X137564047Y-43799047D01*
X137564047Y-43180000D01*
X136897380Y-42894285D02*
X136897380Y-42275238D01*
X137278333Y-42608571D01*
X137278333Y-42465714D01*
X137325952Y-42370476D01*
X137373571Y-42322857D01*
X137468809Y-42275238D01*
X137706904Y-42275238D01*
X137802142Y-42322857D01*
X137849761Y-42370476D01*
X137897380Y-42465714D01*
X137897380Y-42751428D01*
X137849761Y-42846666D01*
X137802142Y-42894285D01*
X136992619Y-41894285D02*
X136945000Y-41846666D01*
X136897380Y-41751428D01*
X136897380Y-41513333D01*
X136945000Y-41418095D01*
X136992619Y-41370476D01*
X137087857Y-41322857D01*
X137183095Y-41322857D01*
X137325952Y-41370476D01*
X137897380Y-41941904D01*
X137897380Y-41322857D01*
X137897380Y-40894285D02*
X136897380Y-40894285D01*
X137611666Y-40560952D01*
X136897380Y-40227619D01*
X137897380Y-40227619D01*
%TO.C,0.01uf*%
X43743809Y-149272380D02*
X43839047Y-149272380D01*
X43934285Y-149320000D01*
X43981904Y-149367619D01*
X44029523Y-149462857D01*
X44077142Y-149653333D01*
X44077142Y-149891428D01*
X44029523Y-150081904D01*
X43981904Y-150177142D01*
X43934285Y-150224761D01*
X43839047Y-150272380D01*
X43743809Y-150272380D01*
X43648571Y-150224761D01*
X43600952Y-150177142D01*
X43553333Y-150081904D01*
X43505714Y-149891428D01*
X43505714Y-149653333D01*
X43553333Y-149462857D01*
X43600952Y-149367619D01*
X43648571Y-149320000D01*
X43743809Y-149272380D01*
X44505714Y-150177142D02*
X44553333Y-150224761D01*
X44505714Y-150272380D01*
X44458095Y-150224761D01*
X44505714Y-150177142D01*
X44505714Y-150272380D01*
X45172380Y-149272380D02*
X45267619Y-149272380D01*
X45362857Y-149320000D01*
X45410476Y-149367619D01*
X45458095Y-149462857D01*
X45505714Y-149653333D01*
X45505714Y-149891428D01*
X45458095Y-150081904D01*
X45410476Y-150177142D01*
X45362857Y-150224761D01*
X45267619Y-150272380D01*
X45172380Y-150272380D01*
X45077142Y-150224761D01*
X45029523Y-150177142D01*
X44981904Y-150081904D01*
X44934285Y-149891428D01*
X44934285Y-149653333D01*
X44981904Y-149462857D01*
X45029523Y-149367619D01*
X45077142Y-149320000D01*
X45172380Y-149272380D01*
X46458095Y-150272380D02*
X45886666Y-150272380D01*
X46172380Y-150272380D02*
X46172380Y-149272380D01*
X46077142Y-149415238D01*
X45981904Y-149510476D01*
X45886666Y-149558095D01*
X47315238Y-149605714D02*
X47315238Y-150272380D01*
X46886666Y-149605714D02*
X46886666Y-150129523D01*
X46934285Y-150224761D01*
X47029523Y-150272380D01*
X47172380Y-150272380D01*
X47267619Y-150224761D01*
X47315238Y-150177142D01*
X47648571Y-149605714D02*
X48029523Y-149605714D01*
X47791428Y-150272380D02*
X47791428Y-149415238D01*
X47839047Y-149320000D01*
X47934285Y-149272380D01*
X48029523Y-149272380D01*
%TO.C,A DATA LINES*%
X84066666Y-17946666D02*
X84542857Y-17946666D01*
X83971428Y-18232380D02*
X84304761Y-17232380D01*
X84638095Y-18232380D01*
X85733333Y-18232380D02*
X85733333Y-17232380D01*
X85971428Y-17232380D01*
X86114285Y-17280000D01*
X86209523Y-17375238D01*
X86257142Y-17470476D01*
X86304761Y-17660952D01*
X86304761Y-17803809D01*
X86257142Y-17994285D01*
X86209523Y-18089523D01*
X86114285Y-18184761D01*
X85971428Y-18232380D01*
X85733333Y-18232380D01*
X86685714Y-17946666D02*
X87161904Y-17946666D01*
X86590476Y-18232380D02*
X86923809Y-17232380D01*
X87257142Y-18232380D01*
X87447619Y-17232380D02*
X88019047Y-17232380D01*
X87733333Y-18232380D02*
X87733333Y-17232380D01*
X88304761Y-17946666D02*
X88780952Y-17946666D01*
X88209523Y-18232380D02*
X88542857Y-17232380D01*
X88876190Y-18232380D01*
X90447619Y-18232380D02*
X89971428Y-18232380D01*
X89971428Y-17232380D01*
X90780952Y-18232380D02*
X90780952Y-17232380D01*
X91257142Y-18232380D02*
X91257142Y-17232380D01*
X91828571Y-18232380D01*
X91828571Y-17232380D01*
X92304761Y-17708571D02*
X92638095Y-17708571D01*
X92780952Y-18232380D02*
X92304761Y-18232380D01*
X92304761Y-17232380D01*
X92780952Y-17232380D01*
X93161904Y-18184761D02*
X93304761Y-18232380D01*
X93542857Y-18232380D01*
X93638095Y-18184761D01*
X93685714Y-18137142D01*
X93733333Y-18041904D01*
X93733333Y-17946666D01*
X93685714Y-17851428D01*
X93638095Y-17803809D01*
X93542857Y-17756190D01*
X93352380Y-17708571D01*
X93257142Y-17660952D01*
X93209523Y-17613333D01*
X93161904Y-17518095D01*
X93161904Y-17422857D01*
X93209523Y-17327619D01*
X93257142Y-17280000D01*
X93352380Y-17232380D01*
X93590476Y-17232380D01*
X93733333Y-17280000D01*
D11*
%TO.C,D DATA LINES*%
X118110000Y-31810000D02*
X135950000Y-31810000D01*
X115510000Y-31810000D02*
X115510000Y-30480000D01*
X116840000Y-31810000D02*
X115510000Y-31810000D01*
X118110000Y-29150000D02*
X135950000Y-29150000D01*
X118110000Y-31810000D02*
X118110000Y-29150000D01*
X135950000Y-31810000D02*
X135950000Y-29150000D01*
%TO.C,0.01uf*%
X168950000Y-79910000D02*
X158710000Y-79910000D01*
X168950000Y-82650000D02*
X158710000Y-82650000D01*
X158710000Y-82650000D02*
X158710000Y-79910000D01*
X168950000Y-82650000D02*
X168950000Y-79910000D01*
%TO.C,6551*%
X159015000Y-26620000D02*
X153555000Y-26620000D01*
X166475000Y-62300000D02*
X166475000Y-26620000D01*
X153555000Y-62300000D02*
X166475000Y-62300000D01*
X166475000Y-26620000D02*
X161015000Y-26620000D01*
X153555000Y-26620000D02*
X153555000Y-62300000D01*
X159015000Y-26620000D02*
G75*
G03*
X161015000Y-26620000I1000000J0D01*
G01*
%TO.C,JP1*%
X144720000Y-53340000D02*
X147380000Y-53340000D01*
X144720000Y-58480000D02*
X147380000Y-58480000D01*
X144720000Y-52070000D02*
X144720000Y-50740000D01*
X144720000Y-53340000D02*
X144720000Y-58480000D01*
X147380000Y-53340000D02*
X147380000Y-58480000D01*
X144720000Y-50740000D02*
X146050000Y-50740000D01*
%TO.C,74HC132N*%
X127120000Y-143445000D02*
X125470000Y-143445000D01*
X121820000Y-143445000D02*
X121820000Y-161345000D01*
X129610000Y-143385000D02*
X119330000Y-143385000D01*
X129610000Y-161405000D02*
X129610000Y-143385000D01*
X119330000Y-161405000D02*
X129610000Y-161405000D01*
X119330000Y-143385000D02*
X119330000Y-161405000D01*
X127120000Y-161345000D02*
X127120000Y-143445000D01*
X121820000Y-161345000D02*
X127120000Y-161345000D01*
X123470000Y-143445000D02*
X121820000Y-143445000D01*
X123470000Y-143445000D02*
G75*
G03*
X125470000Y-143445000I1000000J0D01*
G01*
%TO.C,POWER HEADER*%
X22860000Y-57210000D02*
X21530000Y-57210000D01*
X26730000Y-57210000D02*
X26730000Y-54550000D01*
X24130000Y-57210000D02*
X24130000Y-54550000D01*
X24130000Y-54550000D02*
X26730000Y-54550000D01*
X24130000Y-57210000D02*
X26730000Y-57210000D01*
X21530000Y-57210000D02*
X21530000Y-55880000D01*
%TO.C,0.01uf*%
X91340000Y-46950000D02*
X94080000Y-46950000D01*
X91340000Y-57190000D02*
X94080000Y-57190000D01*
X94080000Y-57190000D02*
X94080000Y-46950000D01*
X91340000Y-57190000D02*
X91340000Y-46950000D01*
%TO.C,JW1*%
X20260000Y-88900000D02*
X20260000Y-87570000D01*
X20260000Y-90170000D02*
X22920000Y-90170000D01*
X20260000Y-97850000D02*
X22920000Y-97850000D01*
X20260000Y-90170000D02*
X20260000Y-97850000D01*
X20260000Y-87570000D02*
X21590000Y-87570000D01*
X22920000Y-90170000D02*
X22920000Y-97850000D01*
%TO.C,0.01uf*%
X181650000Y-68680000D02*
X171410000Y-68680000D01*
X171410000Y-68680000D02*
X171410000Y-65940000D01*
X181650000Y-65940000D02*
X171410000Y-65940000D01*
X181650000Y-68680000D02*
X181650000Y-65940000D01*
%TO.C,AM27c256*%
X82655000Y-120720000D02*
X82655000Y-85040000D01*
X75195000Y-85040000D02*
X69735000Y-85040000D01*
X69735000Y-85040000D02*
X69735000Y-120720000D01*
X82655000Y-85040000D02*
X77195000Y-85040000D01*
X69735000Y-120720000D02*
X82655000Y-120720000D01*
X75195000Y-85040000D02*
G75*
G03*
X77195000Y-85040000I1000000J0D01*
G01*
%TO.C,27pf*%
X131980000Y-46990000D02*
X134720000Y-46990000D01*
X131980000Y-57230000D02*
X131980000Y-46990000D01*
X131980000Y-57230000D02*
X134720000Y-57230000D01*
X134720000Y-57230000D02*
X134720000Y-46990000D01*
%TO.C,R1*%
X25400000Y-72160000D02*
X25400000Y-72850000D01*
X27120000Y-72850000D02*
X23680000Y-72850000D01*
X27120000Y-82090000D02*
X27120000Y-72850000D01*
X23680000Y-72850000D02*
X23680000Y-82090000D01*
X23680000Y-82090000D02*
X27120000Y-82090000D01*
X25400000Y-82780000D02*
X25400000Y-82090000D01*
%TO.C,0.01uf*%
X138470000Y-161190000D02*
X128230000Y-161190000D01*
X128230000Y-163930000D02*
X128230000Y-161190000D01*
X138470000Y-163930000D02*
X138470000Y-161190000D01*
X138470000Y-163930000D02*
X128230000Y-163930000D01*
%TO.C,KM62256CLP*%
X69740000Y-26610000D02*
X69740000Y-62290000D01*
X69740000Y-62290000D02*
X82660000Y-62290000D01*
X82660000Y-26610000D02*
X77200000Y-26610000D01*
X75200000Y-26610000D02*
X69740000Y-26610000D01*
X82660000Y-62290000D02*
X82660000Y-26610000D01*
X75200000Y-26610000D02*
G75*
G03*
X77200000Y-26610000I1000000J0D01*
G01*
%TO.C,W65C02*%
X47100000Y-130865000D02*
X47100000Y-79945000D01*
X34180000Y-79945000D02*
X34180000Y-130865000D01*
X34180000Y-130865000D02*
X47100000Y-130865000D01*
X39640000Y-79945000D02*
X34180000Y-79945000D01*
X47100000Y-79945000D02*
X41640000Y-79945000D01*
X39640000Y-79945000D02*
G75*
G03*
X41640000Y-79945000I1000000J0D01*
G01*
%TO.C,40 PIN*%
X173930000Y-82490000D02*
X176530000Y-82490000D01*
X176530000Y-82490000D02*
X176530000Y-85090000D01*
X179130000Y-82490000D02*
X179130000Y-83820000D01*
X177800000Y-82490000D02*
X179130000Y-82490000D01*
X173930000Y-133410000D02*
X179130000Y-133410000D01*
X173930000Y-82490000D02*
X173930000Y-133410000D01*
X179130000Y-85090000D02*
X179130000Y-133410000D01*
X176530000Y-85090000D02*
X179130000Y-85090000D01*
%TO.C,W65C02*%
X156325000Y-79945000D02*
X143405000Y-79945000D01*
X143405000Y-79945000D02*
X143405000Y-130865000D01*
X156325000Y-130865000D02*
X156325000Y-79945000D01*
X143405000Y-130865000D02*
X148865000Y-130865000D01*
X150865000Y-130865000D02*
X156325000Y-130865000D01*
X150865000Y-130865000D02*
G75*
G03*
X148865000Y-130865000I-1000000J0D01*
G01*
%TO.C,0.01uf*%
X79910000Y-168950000D02*
X79910000Y-158710000D01*
X82650000Y-168950000D02*
X82650000Y-158710000D01*
X79910000Y-158710000D02*
X82650000Y-158710000D01*
X79910000Y-168950000D02*
X82650000Y-168950000D01*
%TO.C,A DATA UNSORTED LINES*%
X88840000Y-124460000D02*
X91500000Y-124460000D01*
X91500000Y-124460000D02*
X91500000Y-160080000D01*
X88840000Y-121860000D02*
X90170000Y-121860000D01*
X88840000Y-160080000D02*
X91500000Y-160080000D01*
X88840000Y-123190000D02*
X88840000Y-121860000D01*
X88840000Y-124460000D02*
X88840000Y-160080000D01*
%TO.C,1.8432M*%
X138445000Y-46305000D02*
X138445000Y-40055000D01*
X143495000Y-46305000D02*
X143495000Y-40055000D01*
X143495000Y-40055000D02*
G75*
G03*
X138445000Y-40055000I-2525000J0D01*
G01*
X138445000Y-46305000D02*
G75*
G03*
X143495000Y-46305000I2525000J0D01*
G01*
%TO.C,0.01uf*%
X50840000Y-148690000D02*
X40600000Y-148690000D01*
X50840000Y-148690000D02*
X50840000Y-145950000D01*
X40600000Y-148690000D02*
X40600000Y-145950000D01*
X50840000Y-145950000D02*
X40600000Y-145950000D01*
%TO.C,A DATA LINES*%
X121985000Y-16570000D02*
X121985000Y-13910000D01*
X85095000Y-16570000D02*
X83765000Y-16570000D01*
X86365000Y-13910000D02*
X121985000Y-13910000D01*
X86365000Y-16570000D02*
X121985000Y-16570000D01*
X86365000Y-16570000D02*
X86365000Y-13910000D01*
X83765000Y-16570000D02*
X83765000Y-15240000D01*
%TD*%
M02*
